<svg width="407" height="523" viewBox="0 0 407 523" fill="none" xmlns="http://www.w3.org/2000/svg">
<g clip-path="url(#clip0_333_8533)">
<path d="M0.0934448 226.752C0.0934448 159.587 54.5414 0.206055 121.707 0.206055C188.873 0.206055 243.321 159.586 243.321 226.752C243.321 259.006 230.509 289.939 207.702 312.746C184.894 335.553 153.961 348.366 121.707 348.366C89.4534 348.366 58.5204 335.553 35.7134 312.746C12.9063 289.939 0.0934448 259.006 0.0934448 226.752Z" fill="#4B6BE0"/>
<path d="M121.707 522.624C121.442 522.624 121.188 522.518 121 522.331C120.813 522.143 120.707 521.889 120.707 521.624V102.34C120.707 102.075 120.813 101.82 121 101.633C121.188 101.445 121.442 101.34 121.707 101.34C121.973 101.34 122.227 101.445 122.415 101.633C122.602 101.82 122.707 102.075 122.707 102.34V521.624C122.707 521.889 122.602 522.143 122.415 522.331C122.227 522.518 121.973 522.624 121.707 522.624Z" fill="#3F3D56"/>
<path d="M121.707 183.286C121.442 183.286 121.188 183.18 121 182.993L72.8665 134.858C72.6843 134.669 72.5835 134.417 72.5858 134.154C72.588 133.892 72.6932 133.641 72.8786 133.456C73.064 133.271 73.3149 133.165 73.5771 133.163C73.8393 133.161 74.0919 133.262 74.2805 133.444L122.415 181.578C122.555 181.718 122.65 181.896 122.689 182.09C122.728 182.284 122.708 182.485 122.632 182.667C122.556 182.85 122.428 183.006 122.264 183.116C122.1 183.226 121.906 183.285 121.708 183.285L121.707 183.286Z" fill="#3F3D56"/>
<path d="M121.707 266.615C121.51 266.615 121.316 266.557 121.152 266.447C120.988 266.337 120.859 266.181 120.784 265.998C120.708 265.815 120.688 265.614 120.727 265.42C120.765 265.226 120.861 265.048 121 264.908L201.61 184.298C201.703 184.203 201.813 184.127 201.935 184.074C202.057 184.022 202.188 183.994 202.321 183.993C202.454 183.992 202.586 184.017 202.708 184.068C202.831 184.118 202.943 184.192 203.037 184.286C203.131 184.38 203.205 184.492 203.255 184.614C203.306 184.737 203.331 184.869 203.33 185.002C203.329 185.135 203.301 185.266 203.249 185.388C203.196 185.51 203.12 185.62 203.024 185.712L122.414 266.322C122.227 266.51 121.973 266.615 121.707 266.615Z" fill="#3F3D56"/>
<path d="M231.822 308.497C231.822 260.233 270.974 145.706 319.27 145.706C367.566 145.706 406.718 260.233 406.718 308.497C406.718 331.69 397.505 353.934 381.105 370.334C364.705 386.734 342.462 395.947 319.268 395.947C296.075 395.947 273.832 386.734 257.432 370.334C241.032 353.934 231.818 331.69 231.818 308.497H231.822Z" fill="#E6E6E6"/>
<path d="M319.266 521.105C319.172 521.105 319.079 521.086 318.991 521.05C318.904 521.014 318.825 520.961 318.758 520.894C318.691 520.828 318.638 520.748 318.602 520.661C318.566 520.574 318.547 520.48 318.547 520.386V219.097C318.547 218.906 318.623 218.723 318.758 218.589C318.893 218.454 319.076 218.378 319.266 218.378C319.457 218.378 319.64 218.454 319.775 218.589C319.91 218.723 319.985 218.906 319.985 219.097V520.386C319.985 520.577 319.91 520.76 319.775 520.894C319.64 521.029 319.457 521.105 319.266 521.105Z" fill="#3F3D56"/>
<path d="M319.266 277.263C319.172 277.264 319.078 277.245 318.991 277.209C318.904 277.173 318.824 277.12 318.757 277.053L284.145 242.465C284.079 242.398 284.026 242.319 283.99 242.231C283.954 242.144 283.935 242.05 283.935 241.955C283.936 241.861 283.954 241.767 283.991 241.68C284.027 241.592 284.08 241.513 284.147 241.446C284.214 241.38 284.294 241.327 284.382 241.291C284.469 241.255 284.563 241.236 284.657 241.236C284.752 241.237 284.846 241.255 284.933 241.292C285.02 241.328 285.1 241.381 285.166 241.448L319.778 276.036C319.879 276.137 319.947 276.265 319.975 276.404C320.003 276.544 319.988 276.688 319.934 276.819C319.88 276.951 319.788 277.063 319.669 277.142C319.551 277.221 319.413 277.263 319.27 277.263H319.266Z" fill="#3F3D56"/>
<path d="M319.266 337.142C319.124 337.142 318.985 337.1 318.867 337.021C318.749 336.942 318.657 336.83 318.602 336.699C318.548 336.568 318.533 336.423 318.561 336.284C318.589 336.144 318.657 336.016 318.757 335.915L376.721 277.99C376.788 277.921 376.867 277.865 376.955 277.827C377.043 277.788 377.137 277.768 377.233 277.767C377.329 277.765 377.424 277.783 377.513 277.819C377.602 277.856 377.683 277.909 377.751 277.977C377.819 278.045 377.872 278.125 377.909 278.214C377.945 278.303 377.963 278.398 377.962 278.494C377.96 278.59 377.94 278.685 377.902 278.773C377.863 278.861 377.808 278.94 377.738 279.006L319.774 336.931C319.708 336.998 319.629 337.051 319.541 337.088C319.454 337.124 319.361 337.142 319.266 337.142Z" fill="#3F3D56"/>
</g>
<defs>
<clipPath id="clip0_333_8533">
<rect width="406.625" height="522.418" fill="white" transform="translate(0.0934448 0.206055)"/>
</clipPath>
</defs>
</svg>
