<svg width="158" height="56" viewBox="0 0 158 56" fill="none" xmlns="http://www.w3.org/2000/svg">
<g filter="url(#filter0_d_1_145)">
<rect x="4" width="150" height="48" rx="4" fill="#020076"/>
<path d="M55.4484 34V20H57.3484V32.3H63.7684V34H55.4484ZM69.8433 34.24C68.8566 34.24 67.9699 34.0133 67.1833 33.56C66.3966 33.0933 65.7766 32.4533 65.3233 31.64C64.8833 30.8133 64.6633 29.8667 64.6633 28.8C64.6633 27.68 64.8899 26.7133 65.3433 25.9C65.7966 25.0867 66.4166 24.46 67.2033 24.02C67.9899 23.58 68.8699 23.36 69.8433 23.36C70.8166 23.36 71.6899 23.58 72.4633 24.02C73.2499 24.46 73.8699 25.0867 74.3233 25.9C74.7899 26.7 75.0233 27.6533 75.0233 28.76C75.0233 29.8667 74.7966 30.8333 74.3433 31.66C73.8899 32.4733 73.2699 33.1067 72.4833 33.56C71.7099 34.0133 70.8299 34.24 69.8433 34.24ZM69.8433 32.64C70.8966 32.64 71.7166 32.2867 72.3033 31.58C72.8899 30.86 73.1833 29.9333 73.1833 28.8C73.1833 28.1067 73.0366 27.4733 72.7433 26.9C72.4499 26.3133 72.0499 25.8467 71.5433 25.5C71.0499 25.14 70.4833 24.96 69.8433 24.96C68.7899 24.96 67.9699 25.3067 67.3833 26C66.7966 26.6933 66.5033 27.6133 66.5033 28.76C66.5033 29.4533 66.6499 30.1 66.9433 30.7C67.2366 31.2867 67.6299 31.76 68.1233 32.12C68.6299 32.4667 69.2033 32.64 69.8433 32.64ZM81.2364 38.64C80.6231 38.64 80.0231 38.5667 79.4364 38.42C78.8631 38.2733 78.3497 38.0533 77.8964 37.76L78.5564 36.2C78.8764 36.4533 79.2497 36.66 79.6764 36.82C80.1031 36.9933 80.6231 37.08 81.2364 37.08C82.1831 37.08 82.9231 36.8267 83.4564 36.32C84.0031 35.8267 84.2764 35.0333 84.2764 33.94V32.66C84.0097 32.98 83.6231 33.2867 83.1164 33.58C82.6231 33.86 82.0297 34 81.3364 34C80.5497 34 79.8031 33.8 79.0964 33.4C78.3897 32.9867 77.8164 32.3867 77.3764 31.6C76.9364 30.8133 76.7164 29.8667 76.7164 28.76C76.7164 27.72 76.9297 26.7933 77.3564 25.98C77.7964 25.1667 78.3831 24.5267 79.1164 24.06C79.8497 23.5933 80.6564 23.36 81.5364 23.36C82.1231 23.36 82.6564 23.46 83.1364 23.66C83.6164 23.86 84.0297 24.1067 84.3764 24.4V23.6H86.0164V33.76C86.0164 34.9067 85.8164 35.84 85.4164 36.56C85.0164 37.28 84.4564 37.8067 83.7364 38.14C83.0297 38.4733 82.1964 38.64 81.2364 38.64ZM81.7364 32.4C82.2697 32.4 82.7497 32.28 83.1764 32.04C83.6031 31.8 83.9497 31.52 84.2164 31.2V25.76C83.9231 25.5467 83.5697 25.3533 83.1564 25.18C82.7431 25.0067 82.2631 24.92 81.7164 24.92C81.1697 24.92 80.6564 25.0667 80.1764 25.36C79.6964 25.6533 79.3031 26.08 78.9964 26.64C78.7031 27.1867 78.5564 27.86 78.5564 28.66C78.5564 29.42 78.7031 30.08 78.9964 30.64C79.3031 31.2 79.6964 31.6333 80.1764 31.94C80.6564 32.2467 81.1764 32.4 81.7364 32.4ZM89.1156 34V23.6H90.9156V34H89.1156ZM90.0156 21.82C89.669 21.82 89.369 21.6933 89.1156 21.44C88.8756 21.1867 88.7556 20.8933 88.7556 20.56C88.7556 20.1733 88.869 19.8667 89.0956 19.64C89.3223 19.4133 89.629 19.3 90.0156 19.3C90.3623 19.3 90.6556 19.4267 90.8956 19.68C91.149 19.92 91.2756 20.2133 91.2756 20.56C91.2756 20.9333 91.1623 21.24 90.9356 21.48C90.709 21.7067 90.4023 21.82 90.0156 21.82ZM94.1156 34V23.6H95.8556V25.34C96.229 24.78 96.7023 24.3133 97.2756 23.94C97.8623 23.5533 98.5556 23.36 99.3556 23.36C100.529 23.36 101.402 23.7133 101.976 24.42C102.562 25.1267 102.856 26.06 102.856 27.22V34H101.056V27.42C101.056 26.6733 100.876 26.0733 100.516 25.62C100.169 25.1667 99.6823 24.94 99.0556 24.94C98.4423 24.94 97.8623 25.16 97.3156 25.6C96.769 26.0267 96.3023 26.5333 95.9156 27.12V34H94.1156Z" fill="white"/>
</g>
<defs>
<filter id="filter0_d_1_145" x="0" y="0" width="158" height="56" filterUnits="userSpaceOnUse" color-interpolation-filters="sRGB">
<feFlood flood-opacity="0" result="BackgroundImageFix"/>
<feColorMatrix in="SourceAlpha" type="matrix" values="0 0 0 0 0 0 0 0 0 0 0 0 0 0 0 0 0 0 127 0" result="hardAlpha"/>
<feOffset dy="4"/>
<feGaussianBlur stdDeviation="2"/>
<feComposite in2="hardAlpha" operator="out"/>
<feColorMatrix type="matrix" values="0 0 0 0 0 0 0 0 0 0 0 0 0 0 0 0 0 0 0.25 0"/>
<feBlend mode="normal" in2="BackgroundImageFix" result="effect1_dropShadow_1_145"/>
<feBlend mode="normal" in="SourceGraphic" in2="effect1_dropShadow_1_145" result="shape"/>
</filter>
</defs>
</svg>
