<svg width="158" height="56" viewBox="0 0 158 56" fill="none" xmlns="http://www.w3.org/2000/svg">
<g filter="url(#filter0_d_1_148)">
<rect x="4" width="150" height="48" rx="4" fill="#020076"/>
<path d="M63.5098 33.2L61.9498 29.2H55.4698L53.9098 33.16L52.2898 32.5L57.7698 19H59.8498L65.2498 32.5L63.5098 33.2ZM56.0698 27.6H61.3298L58.7098 20.88L56.0698 27.6ZM71.7292 33.24C71.1292 33.24 70.5626 33.1333 70.0292 32.92C69.5092 32.6933 69.0759 32.4333 68.7292 32.14V33H67.0492V18.2H68.8492V23.68C69.1159 23.3733 69.5026 23.08 70.0092 22.8C70.5292 22.5067 71.1426 22.36 71.8492 22.36C72.6492 22.36 73.3959 22.5733 74.0892 23C74.7959 23.4133 75.3626 24.02 75.7892 24.82C76.2159 25.6067 76.4292 26.5667 76.4292 27.7C76.4292 28.5267 76.2959 29.28 76.0292 29.96C75.7626 30.64 75.4026 31.2267 74.9492 31.72C74.5092 32.2 74.0092 32.5733 73.4492 32.84C72.8892 33.1067 72.3159 33.24 71.7292 33.24ZM71.2492 31.64C71.9026 31.64 72.4759 31.48 72.9692 31.16C73.4759 30.84 73.8692 30.3867 74.1492 29.8C74.4426 29.2133 74.5892 28.5333 74.5892 27.76C74.5892 26.96 74.4426 26.2733 74.1492 25.7C73.8692 25.1267 73.4892 24.6867 73.0092 24.38C72.5426 24.0733 72.0226 23.92 71.4492 23.92C70.8759 23.92 70.3559 24.0667 69.8892 24.36C69.4359 24.64 69.0892 24.9467 68.8492 25.28V30.84C69.1559 31.08 69.5159 31.2733 69.9292 31.42C70.3426 31.5667 70.7826 31.64 71.2492 31.64ZM78.9242 33V22.6H80.6642V24.34C81.0376 23.78 81.5109 23.3133 82.0842 22.94C82.6576 22.5533 83.3109 22.36 84.0442 22.36C84.8709 22.36 85.5442 22.56 86.0642 22.96C86.5976 23.36 86.9709 23.8933 87.1842 24.56C87.5976 23.9467 88.0842 23.4267 88.6442 23C89.2176 22.5733 89.9242 22.36 90.7642 22.36C91.8976 22.36 92.7376 22.72 93.2842 23.44C93.8442 24.1467 94.1242 25.0733 94.1242 26.22V33H92.3242V26.36C92.3242 25.64 92.1576 25.06 91.8242 24.62C91.4909 24.1667 91.0309 23.94 90.4442 23.94C89.8442 23.94 89.2842 24.1667 88.7642 24.62C88.2576 25.06 87.8109 25.58 87.4242 26.18V33H85.6242V26.36C85.6242 25.64 85.4576 25.06 85.1242 24.62C84.7909 24.1667 84.3309 23.94 83.7442 23.94C83.1576 23.94 82.6042 24.16 82.0842 24.6C81.5642 25.0267 81.1109 25.5333 80.7242 26.12V33H78.9242ZM101.385 33.24C99.8917 33.24 98.705 32.7667 97.825 31.82C96.9583 30.86 96.525 29.52 96.525 27.8C96.525 26.76 96.7183 25.8333 97.105 25.02C97.505 24.1933 98.0583 23.5467 98.765 23.08C99.4717 22.6 100.292 22.36 101.225 22.36C102.225 22.36 103.052 22.58 103.705 23.02C104.372 23.4467 104.872 24.0267 105.205 24.76C105.538 25.4933 105.705 26.3 105.705 27.18C105.705 27.6467 105.685 28.1 105.645 28.54H98.365C98.485 29.5133 98.825 30.2733 99.385 30.82C99.945 31.3667 100.685 31.64 101.605 31.64C102.205 31.64 102.745 31.58 103.225 31.46C103.705 31.3267 104.165 31.16 104.605 30.96L105.025 32.5C104.545 32.7133 104.005 32.8867 103.405 33.02C102.805 33.1667 102.132 33.24 101.385 33.24ZM98.345 27.08H104.045C104.045 26.0667 103.792 25.2867 103.285 24.74C102.778 24.1933 102.078 23.92 101.185 23.92C100.412 23.92 99.7717 24.1933 99.265 24.74C98.7583 25.2733 98.4517 26.0533 98.345 27.08ZM111.264 33.24C110.651 33.24 110.097 33.1267 109.604 32.9C109.111 32.66 108.717 32.28 108.424 31.76C108.144 31.24 108.004 30.5667 108.004 29.74V18.2H109.804V29.56C109.804 30.28 109.951 30.8133 110.244 31.16C110.551 31.5067 110.971 31.68 111.504 31.68C111.757 31.68 112.004 31.6533 112.244 31.6C112.497 31.5333 112.711 31.46 112.884 31.38L113.324 32.84C113.084 32.9467 112.784 33.04 112.424 33.12C112.077 33.2 111.691 33.24 111.264 33.24ZM118.665 33.24C117.812 33.24 117.032 33.02 116.325 32.58C115.618 32.14 115.058 31.52 114.645 30.72C114.232 29.9067 114.025 28.9533 114.025 27.86C114.025 26.8067 114.232 25.8667 114.645 25.04C115.072 24.2133 115.632 23.56 116.325 23.08C117.032 22.6 117.805 22.36 118.645 22.36C119.338 22.36 119.932 22.5 120.425 22.78C120.932 23.06 121.325 23.3467 121.605 23.64V18.2H123.405V30.48C123.405 30.9867 123.525 31.32 123.765 31.48C124.018 31.6267 124.292 31.7 124.585 31.7L124.205 33.1C122.938 33.1 122.165 32.5933 121.885 31.58C121.592 31.9933 121.178 32.3733 120.645 32.72C120.125 33.0667 119.465 33.24 118.665 33.24ZM119.065 31.64C119.558 31.64 120.025 31.5267 120.465 31.3C120.918 31.06 121.298 30.7533 121.605 30.38V25.22C121.352 24.9 120.998 24.6067 120.545 24.34C120.092 24.06 119.592 23.92 119.045 23.92C118.405 23.92 117.845 24.0933 117.365 24.44C116.885 24.7867 116.512 25.2533 116.245 25.84C115.992 26.4133 115.865 27.0667 115.865 27.8C115.865 28.5333 116.005 29.1933 116.285 29.78C116.565 30.3533 116.945 30.8067 117.425 31.14C117.918 31.4733 118.465 31.64 119.065 31.64ZM130.955 33.24C129.462 33.24 128.275 32.7667 127.395 31.82C126.529 30.86 126.095 29.52 126.095 27.8C126.095 26.76 126.289 25.8333 126.675 25.02C127.075 24.1933 127.629 23.5467 128.335 23.08C129.042 22.6 129.862 22.36 130.795 22.36C131.795 22.36 132.622 22.58 133.275 23.02C133.942 23.4467 134.442 24.0267 134.775 24.76C135.109 25.4933 135.275 26.3 135.275 27.18C135.275 27.6467 135.255 28.1 135.215 28.54H127.935C128.055 29.5133 128.395 30.2733 128.955 30.82C129.515 31.3667 130.255 31.64 131.175 31.64C131.775 31.64 132.315 31.58 132.795 31.46C133.275 31.3267 133.735 31.16 134.175 30.96L134.595 32.5C134.115 32.7133 133.575 32.8867 132.975 33.02C132.375 33.1667 131.702 33.24 130.955 33.24ZM127.915 27.08H133.615C133.615 26.0667 133.362 25.2867 132.855 24.74C132.349 24.1933 131.649 23.92 130.755 23.92C129.982 23.92 129.342 24.1933 128.835 24.74C128.329 25.2733 128.022 26.0533 127.915 27.08ZM137.674 33V22.6H139.414V24.34C139.788 23.78 140.261 23.3133 140.834 22.94C141.421 22.5533 142.114 22.36 142.914 22.36C144.088 22.36 144.961 22.7133 145.534 23.42C146.121 24.1267 146.414 25.06 146.414 26.22V33H144.614V26.42C144.614 25.6733 144.434 25.0733 144.074 24.62C143.728 24.1667 143.241 23.94 142.614 23.94C142.001 23.94 141.421 24.16 140.874 24.6C140.328 25.0267 139.861 25.5333 139.474 26.12V33H137.674Z" fill="#E4EFFF"/>
<path d="M18.669 31.1702L17.9217 31.9423C17.6053 32.2692 17.0937 32.2692 16.7807 31.9423L10.2373 25.185C9.9209 24.8581 9.9209 24.3294 10.2373 24.006L16.7807 17.2452C17.0971 16.9183 17.6087 16.9183 17.9217 17.2452L18.669 18.0173C18.9887 18.3476 18.982 18.8867 18.6555 19.2101L14.5996 23.2026L27.1757 23.3281C27.6233 23.3281 28.0135 23.5748 28.0135 24.0373V25.1502C28.0135 25.6127 27.6233 25.9849 27.1757 25.9849H14.5996L18.6555 29.9774C18.9854 30.3008 18.9921 30.8399 18.669 31.1702Z" fill="#E4EFFF"/>
<path d="M23 20.125V17C23 14.7909 24.7909 13 27 13H37C39.2091 13 41 14.7909 41 17V33C41 35.2091 39.2091 37 37 37H27C24.7909 37 23 35.2091 23 33V30.25" stroke="#E4EFFF" stroke-width="3"/>
</g>
<defs>
<filter id="filter0_d_1_148" x="0" y="0" width="158" height="56" filterUnits="userSpaceOnUse" color-interpolation-filters="sRGB">
<feFlood flood-opacity="0" result="BackgroundImageFix"/>
<feColorMatrix in="SourceAlpha" type="matrix" values="0 0 0 0 0 0 0 0 0 0 0 0 0 0 0 0 0 0 127 0" result="hardAlpha"/>
<feOffset dy="4"/>
<feGaussianBlur stdDeviation="2"/>
<feComposite in2="hardAlpha" operator="out"/>
<feColorMatrix type="matrix" values="0 0 0 0 0 0 0 0 0 0 0 0 0 0 0 0 0 0 0.25 0"/>
<feBlend mode="normal" in2="BackgroundImageFix" result="effect1_dropShadow_1_148"/>
<feBlend mode="normal" in="SourceGraphic" in2="effect1_dropShadow_1_148" result="shape"/>
</filter>
</defs>
</svg>
