<svg width="286" height="97" viewBox="0 0 286 97" fill="none" xmlns="http://www.w3.org/2000/svg">
<g filter="url(#filter0_d_101_226)">
<rect x="4" width="278" height="89" rx="4" fill="#020076"/>
</g>
<path d="M70.0588 58.4L66.9388 50.4H53.9788L50.8588 58.32L47.6188 57L58.5788 30H62.7388L73.5388 57L70.0588 58.4ZM55.1788 47.2H65.6988L60.4588 33.76L55.1788 47.2ZM77.1375 58V37.2H80.6175V40.68C81.3642 39.56 82.3108 38.6267 83.4575 37.88C84.6308 37.1067 86.0175 36.72 87.6175 36.72C89.9642 36.72 91.7108 37.4267 92.8575 38.84C94.0308 40.2533 94.6175 42.12 94.6175 44.44V58H91.0175V44.84C91.0175 43.3467 90.6575 42.1467 89.9375 41.24C89.2442 40.3333 88.2708 39.88 87.0175 39.88C85.7908 39.88 84.6308 40.32 83.5375 41.2C82.4442 42.0533 81.5108 43.0667 80.7375 44.24V58H77.1375ZM100.809 58V37.2H104.289V40.68C105.036 39.56 105.983 38.6267 107.129 37.88C108.276 37.1067 109.583 36.72 111.049 36.72C112.703 36.72 114.049 37.12 115.089 37.92C116.156 38.72 116.903 39.7867 117.329 41.12C118.156 39.8933 119.129 38.8533 120.249 38C121.396 37.1467 122.809 36.72 124.489 36.72C126.756 36.72 128.436 37.44 129.529 38.88C130.649 40.2933 131.209 42.1467 131.209 44.44V58H127.609V44.72C127.609 43.28 127.276 42.12 126.609 41.24C125.943 40.3333 125.023 39.88 123.849 39.88C122.649 39.88 121.529 40.3333 120.489 41.24C119.476 42.12 118.583 43.16 117.809 44.36V58H114.209V44.72C114.209 43.28 113.876 42.12 113.209 41.24C112.543 40.3333 111.623 39.88 110.449 39.88C109.276 39.88 108.169 40.32 107.129 41.2C106.089 42.0533 105.183 43.0667 104.409 44.24V58H100.809ZM145.731 58.48C142.744 58.48 140.371 57.5333 138.611 55.64C136.878 53.72 136.011 51.04 136.011 47.6C136.011 45.52 136.398 43.6667 137.171 42.04C137.971 40.3867 139.078 39.0933 140.491 38.16C141.904 37.2 143.544 36.72 145.411 36.72C147.411 36.72 149.064 37.16 150.371 38.04C151.704 38.8933 152.704 40.0533 153.371 41.52C154.038 42.9867 154.371 44.6 154.371 46.36C154.371 47.2933 154.331 48.2 154.251 49.08H139.691C139.931 51.0267 140.611 52.5467 141.731 53.64C142.851 54.7333 144.331 55.28 146.171 55.28C147.371 55.28 148.451 55.16 149.411 54.92C150.371 54.6533 151.291 54.32 152.171 53.92L153.011 57C152.051 57.4267 150.971 57.7733 149.771 58.04C148.571 58.3333 147.224 58.48 145.731 58.48ZM139.651 46.16H151.051C151.051 44.1333 150.544 42.5733 149.531 41.48C148.518 40.3867 147.118 39.84 145.331 39.84C143.784 39.84 142.504 40.3867 141.491 41.48C140.478 42.5467 139.864 44.1067 139.651 46.16ZM165.489 58.48C164.262 58.48 163.155 58.2533 162.169 57.8C161.182 57.32 160.395 56.56 159.809 55.52C159.249 54.48 158.969 53.1333 158.969 51.48V28.4H162.569V51.12C162.569 52.56 162.862 53.6267 163.449 54.32C164.062 55.0133 164.902 55.36 165.969 55.36C166.475 55.36 166.969 55.3067 167.449 55.2C167.955 55.0667 168.382 54.92 168.729 54.76L169.609 57.68C169.129 57.8933 168.529 58.08 167.809 58.24C167.115 58.4 166.342 58.48 165.489 58.48ZM180.291 58.48C178.584 58.48 177.024 58.04 175.611 57.16C174.198 56.28 173.078 55.04 172.251 53.44C171.424 51.8133 171.011 49.9067 171.011 47.72C171.011 45.6133 171.424 43.7333 172.251 42.08C173.104 40.4267 174.224 39.12 175.611 38.16C177.024 37.2 178.571 36.72 180.251 36.72C181.638 36.72 182.824 37 183.811 37.56C184.824 38.12 185.611 38.6933 186.171 39.28V28.4H189.771V52.96C189.771 53.9733 190.011 54.64 190.491 54.96C190.998 55.2533 191.544 55.4 192.131 55.4L191.371 58.2C188.838 58.2 187.291 57.1867 186.731 55.16C186.144 55.9867 185.318 56.7467 184.251 57.44C183.211 58.1333 181.891 58.48 180.291 58.48ZM181.091 55.28C182.078 55.28 183.011 55.0533 183.891 54.6C184.798 54.12 185.558 53.5067 186.171 52.76V42.44C185.664 41.8 184.958 41.2133 184.051 40.68C183.144 40.12 182.144 39.84 181.051 39.84C179.771 39.84 178.651 40.1867 177.691 40.88C176.731 41.5733 175.984 42.5067 175.451 43.68C174.944 44.8267 174.691 46.1333 174.691 47.6C174.691 49.0667 174.971 50.3867 175.531 51.56C176.091 52.7067 176.851 53.6133 177.811 54.28C178.798 54.9467 179.891 55.28 181.091 55.28ZM204.872 58.48C201.885 58.48 199.512 57.5333 197.752 55.64C196.018 53.72 195.152 51.04 195.152 47.6C195.152 45.52 195.538 43.6667 196.312 42.04C197.112 40.3867 198.218 39.0933 199.632 38.16C201.045 37.2 202.685 36.72 204.552 36.72C206.552 36.72 208.205 37.16 209.512 38.04C210.845 38.8933 211.845 40.0533 212.512 41.52C213.178 42.9867 213.512 44.6 213.512 46.36C213.512 47.2933 213.472 48.2 213.392 49.08H198.832C199.072 51.0267 199.752 52.5467 200.872 53.64C201.992 54.7333 203.472 55.28 205.312 55.28C206.512 55.28 207.592 55.16 208.552 54.92C209.512 54.6533 210.432 54.32 211.312 53.92L212.152 57C211.192 57.4267 210.112 57.7733 208.912 58.04C207.712 58.3333 206.365 58.48 204.872 58.48ZM198.792 46.16H210.192C210.192 44.1333 209.685 42.5733 208.672 41.48C207.658 40.3867 206.258 39.84 204.472 39.84C202.925 39.84 201.645 40.3867 200.632 41.48C199.618 42.5467 199.005 44.1067 198.792 46.16ZM218.309 58V37.2H221.789V40.68C222.536 39.56 223.483 38.6267 224.629 37.88C225.803 37.1067 227.189 36.72 228.789 36.72C231.136 36.72 232.883 37.4267 234.029 38.84C235.203 40.2533 235.789 42.12 235.789 44.44V58H232.189V44.84C232.189 43.3467 231.829 42.1467 231.109 41.24C230.416 40.3333 229.443 39.88 228.189 39.88C226.963 39.88 225.803 40.32 224.709 41.2C223.616 42.0533 222.683 43.0667 221.909 44.24V58H218.309Z" fill="#E4EFFF"/>
<defs>
<filter id="filter0_d_101_226" x="0" y="0" width="286" height="97" filterUnits="userSpaceOnUse" color-interpolation-filters="sRGB">
<feFlood flood-opacity="0" result="BackgroundImageFix"/>
<feColorMatrix in="SourceAlpha" type="matrix" values="0 0 0 0 0 0 0 0 0 0 0 0 0 0 0 0 0 0 127 0" result="hardAlpha"/>
<feOffset dy="4"/>
<feGaussianBlur stdDeviation="2"/>
<feComposite in2="hardAlpha" operator="out"/>
<feColorMatrix type="matrix" values="0 0 0 0 0 0 0 0 0 0 0 0 0 0 0 0 0 0 0.25 0"/>
<feBlend mode="normal" in2="BackgroundImageFix" result="effect1_dropShadow_101_226"/>
<feBlend mode="normal" in="SourceGraphic" in2="effect1_dropShadow_101_226" result="shape"/>
</filter>
</defs>
</svg>
