<svg width="106" height="106" viewBox="0 0 106 106" fill="none" xmlns="http://www.w3.org/2000/svg">
<g filter="url(#filter0_d_738_2028)">
<circle cx="53" cy="51" r="51" fill="#020076"/>
</g>
<path d="M54.1744 69.1454L51.9631 71.3567C51.0268 72.2931 49.5127 72.2931 48.5863 71.3567L29.2223 52.0026C28.2859 51.0663 28.2859 49.5523 29.2223 48.6259L48.5863 29.2618C49.5227 28.3255 51.0367 28.3255 51.9631 29.2618L54.1744 31.4731C55.1207 32.4194 55.1008 33.9634 54.1346 34.8897L42.1316 46.3249H70.7594C72.0842 46.3249 73.15 47.3907 73.15 48.7155V51.903C73.15 53.2278 72.0842 54.2937 70.7594 54.2937H42.1316L54.1346 65.7288C55.1107 66.6552 55.1307 68.1991 54.1744 69.1454Z" fill="#E4EFFF"/>
<defs>
<filter id="filter0_d_738_2028" x="0" y="0" width="106" height="106" filterUnits="userSpaceOnUse" color-interpolation-filters="sRGB">
<feFlood flood-opacity="0" result="BackgroundImageFix"/>
<feColorMatrix in="SourceAlpha" type="matrix" values="0 0 0 0 0 0 0 0 0 0 0 0 0 0 0 0 0 0 127 0" result="hardAlpha"/>
<feOffset dy="2"/>
<feGaussianBlur stdDeviation="1"/>
<feComposite in2="hardAlpha" operator="out"/>
<feColorMatrix type="matrix" values="0 0 0 0 0 0 0 0 0 0 0 0 0 0 0 0 0 0 0.25 0"/>
<feBlend mode="normal" in2="BackgroundImageFix" result="effect1_dropShadow_738_2028"/>
<feBlend mode="normal" in="SourceGraphic" in2="effect1_dropShadow_738_2028" result="shape"/>
</filter>
</defs>
</svg>
