<svg width="287" height="97" viewBox="0 0 287 97" fill="none" xmlns="http://www.w3.org/2000/svg">
<g filter="url(#filter0_d_74_212)">
<rect x="4" width="278.125" height="89" rx="4" fill="#020076"/>
</g>
<rect x="4" width="278.125" height="89" rx="4" fill="#020076"/>
<path d="M105.02 57.4L101.9 49.4H88.9397L85.8197 57.32L82.5797 56L93.5397 29H97.6997L108.5 56L105.02 57.4ZM90.1397 46.2H100.66L95.4197 32.76L90.1397 46.2ZM121.458 57.48C120.258 57.48 119.125 57.2667 118.058 56.84C117.018 56.3867 116.152 55.8667 115.458 55.28V57H112.098V27.4H115.698V38.36C116.232 37.7467 117.005 37.16 118.018 36.6C119.058 36.0133 120.285 35.72 121.698 35.72C123.298 35.72 124.792 36.1467 126.178 37C127.592 37.8267 128.725 39.04 129.578 40.64C130.432 42.2133 130.858 44.1333 130.858 46.4C130.858 48.0533 130.592 49.56 130.058 50.92C129.525 52.28 128.805 53.4533 127.898 54.44C127.018 55.4 126.018 56.1467 124.898 56.68C123.778 57.2133 122.632 57.48 121.458 57.48ZM120.498 54.28C121.805 54.28 122.952 53.96 123.938 53.32C124.952 52.68 125.738 51.7733 126.298 50.6C126.885 49.4267 127.178 48.0667 127.178 46.52C127.178 44.92 126.885 43.5467 126.298 42.4C125.738 41.2533 124.978 40.3733 124.018 39.76C123.085 39.1467 122.045 38.84 120.898 38.84C119.752 38.84 118.712 39.1333 117.778 39.72C116.872 40.28 116.178 40.8933 115.698 41.56V52.68C116.312 53.16 117.032 53.5467 117.858 53.84C118.685 54.1333 119.565 54.28 120.498 54.28ZM135.848 57V36.2H139.328V39.68C140.075 38.56 141.022 37.6267 142.168 36.88C143.315 36.1067 144.622 35.72 146.088 35.72C147.742 35.72 149.088 36.12 150.128 36.92C151.195 37.72 151.942 38.7867 152.368 40.12C153.195 38.8933 154.168 37.8533 155.288 37C156.435 36.1467 157.848 35.72 159.528 35.72C161.795 35.72 163.475 36.44 164.568 37.88C165.688 39.2933 166.248 41.1467 166.248 43.44V57H162.648V43.72C162.648 42.28 162.315 41.12 161.648 40.24C160.982 39.3333 160.062 38.88 158.888 38.88C157.688 38.88 156.568 39.3333 155.528 40.24C154.515 41.12 153.622 42.16 152.848 43.36V57H149.248V43.72C149.248 42.28 148.915 41.12 148.248 40.24C147.582 39.3333 146.662 38.88 145.488 38.88C144.315 38.88 143.208 39.32 142.168 40.2C141.128 41.0533 140.222 42.0667 139.448 43.24V57H135.848ZM180.77 57.48C177.783 57.48 175.41 56.5333 173.65 54.64C171.917 52.72 171.05 50.04 171.05 46.6C171.05 44.52 171.437 42.6667 172.21 41.04C173.01 39.3867 174.117 38.0933 175.53 37.16C176.943 36.2 178.583 35.72 180.45 35.72C182.45 35.72 184.103 36.16 185.41 37.04C186.743 37.8933 187.743 39.0533 188.41 40.52C189.077 41.9867 189.41 43.6 189.41 45.36C189.41 46.2933 189.37 47.2 189.29 48.08H174.73C174.97 50.0267 175.65 51.5467 176.77 52.64C177.89 53.7333 179.37 54.28 181.21 54.28C182.41 54.28 183.49 54.16 184.45 53.92C185.41 53.6533 186.33 53.32 187.21 52.92L188.05 56C187.09 56.4267 186.01 56.7733 184.81 57.04C183.61 57.3333 182.263 57.48 180.77 57.48ZM174.69 45.16H186.09C186.09 43.1333 185.583 41.5733 184.57 40.48C183.557 39.3867 182.157 38.84 180.37 38.84C178.823 38.84 177.543 39.3867 176.53 40.48C175.517 41.5467 174.903 43.1067 174.69 45.16ZM200.528 57.48C199.301 57.48 198.194 57.2533 197.208 56.8C196.221 56.32 195.434 55.56 194.848 54.52C194.288 53.48 194.008 52.1333 194.008 50.48V27.4H197.608V50.12C197.608 51.56 197.901 52.6267 198.488 53.32C199.101 54.0133 199.941 54.36 201.008 54.36C201.514 54.36 202.008 54.3067 202.488 54.2C202.994 54.0667 203.421 53.92 203.768 53.76L204.648 56.68C204.168 56.8933 203.568 57.08 202.848 57.24C202.154 57.4 201.381 57.48 200.528 57.48ZM215.33 57.48C213.623 57.48 212.063 57.04 210.65 56.16C209.237 55.28 208.117 54.04 207.29 52.44C206.463 50.8133 206.05 48.9067 206.05 46.72C206.05 44.6133 206.463 42.7333 207.29 41.08C208.143 39.4267 209.263 38.12 210.65 37.16C212.063 36.2 213.61 35.72 215.29 35.72C216.677 35.72 217.863 36 218.85 36.56C219.863 37.12 220.65 37.6933 221.21 38.28V27.4H224.81V51.96C224.81 52.9733 225.05 53.64 225.53 53.96C226.037 54.2533 226.583 54.4 227.17 54.4L226.41 57.2C223.877 57.2 222.33 56.1867 221.77 54.16C221.183 54.9867 220.357 55.7467 219.29 56.44C218.25 57.1333 216.93 57.48 215.33 57.48ZM216.13 54.28C217.117 54.28 218.05 54.0533 218.93 53.6C219.837 53.12 220.597 52.5067 221.21 51.76V41.44C220.703 40.8 219.997 40.2133 219.09 39.68C218.183 39.12 217.183 38.84 216.09 38.84C214.81 38.84 213.69 39.1867 212.73 39.88C211.77 40.5733 211.023 41.5067 210.49 42.68C209.983 43.8267 209.73 45.1333 209.73 46.6C209.73 48.0667 210.01 49.3867 210.57 50.56C211.13 51.7067 211.89 52.6133 212.85 53.28C213.837 53.9467 214.93 54.28 216.13 54.28ZM239.911 57.48C236.924 57.48 234.551 56.5333 232.791 54.64C231.057 52.72 230.191 50.04 230.191 46.6C230.191 44.52 230.577 42.6667 231.351 41.04C232.151 39.3867 233.257 38.0933 234.671 37.16C236.084 36.2 237.724 35.72 239.591 35.72C241.591 35.72 243.244 36.16 244.551 37.04C245.884 37.8933 246.884 39.0533 247.551 40.52C248.217 41.9867 248.551 43.6 248.551 45.36C248.551 46.2933 248.511 47.2 248.431 48.08H233.871C234.111 50.0267 234.791 51.5467 235.911 52.64C237.031 53.7333 238.511 54.28 240.351 54.28C241.551 54.28 242.631 54.16 243.591 53.92C244.551 53.6533 245.471 53.32 246.351 52.92L247.191 56C246.231 56.4267 245.151 56.7733 243.951 57.04C242.751 57.3333 241.404 57.48 239.911 57.48ZM233.831 45.16H245.231C245.231 43.1333 244.724 41.5733 243.711 40.48C242.697 39.3867 241.297 38.84 239.511 38.84C237.964 38.84 236.684 39.3867 235.671 40.48C234.657 41.5467 234.044 43.1067 233.831 45.16ZM253.348 57V36.2H256.828V39.68C257.575 38.56 258.522 37.6267 259.668 36.88C260.842 36.1067 262.228 35.72 263.828 35.72C266.175 35.72 267.922 36.4267 269.068 37.84C270.242 39.2533 270.828 41.12 270.828 43.44V57H267.228V43.84C267.228 42.3467 266.868 41.1467 266.148 40.24C265.455 39.3333 264.482 38.88 263.228 38.88C262.002 38.88 260.842 39.32 259.748 40.2C258.655 41.0533 257.722 42.0667 256.948 43.24V57H253.348Z" fill="white"/>
<path d="M29.4483 53.9504L28.2029 55.2372C27.6756 55.782 26.8229 55.782 26.3011 55.2372L15.3955 43.9749C14.8682 43.4301 14.8682 42.549 15.3955 42.01L26.3011 30.742C26.8285 30.1971 27.6812 30.1971 28.2029 30.742L29.4483 32.0287C29.9812 32.5794 29.97 33.4778 29.4258 34.0169L22.6659 40.671L43.6261 40.8802C44.3722 40.8802 45.0225 41.2912 45.0225 42.0622V43.917C45.0225 44.6879 44.3722 45.3081 43.6261 45.3081H22.6659L29.4258 51.9623C29.9756 52.5013 29.9868 53.3997 29.4483 53.9504Z" fill="white"/>
<path d="M36.6667 35.5417V27.6667C36.6667 25.4575 38.4575 23.6667 40.6667 23.6667H62.6667C64.8758 23.6667 66.6667 25.4575 66.6667 27.6667V59.6667C66.6667 61.8758 64.8758 63.6667 62.6667 63.6667H40.6667C38.4575 63.6667 36.6667 61.8758 36.6667 59.6667V52.4167" stroke="white" stroke-width="3"/>
<defs>
<filter id="filter0_d_74_212" x="0" y="0" width="286.125" height="97" filterUnits="userSpaceOnUse" color-interpolation-filters="sRGB">
<feFlood flood-opacity="0" result="BackgroundImageFix"/>
<feColorMatrix in="SourceAlpha" type="matrix" values="0 0 0 0 0 0 0 0 0 0 0 0 0 0 0 0 0 0 127 0" result="hardAlpha"/>
<feOffset dy="4"/>
<feGaussianBlur stdDeviation="2"/>
<feComposite in2="hardAlpha" operator="out"/>
<feColorMatrix type="matrix" values="0 0 0 0 0 0 0 0 0 0 0 0 0 0 0 0 0 0 0.25 0"/>
<feBlend mode="normal" in2="BackgroundImageFix" result="effect1_dropShadow_74_212"/>
<feBlend mode="normal" in="SourceGraphic" in2="effect1_dropShadow_74_212" result="shape"/>
</filter>
</defs>
</svg>
