<svg width="113" height="97" viewBox="0 0 113 97" fill="none" xmlns="http://www.w3.org/2000/svg">
<g filter="url(#filter0_d_1_138)">
<rect x="4" width="105" height="89" rx="10" fill="#020076"/>
</g>
<g filter="url(#filter1_d_1_138)">
<path d="M86.1704 66.7384L74.2912 54.8612C73.7551 54.3252 73.0282 54.0273 72.2657 54.0273H70.3236C73.6121 49.8221 75.5661 44.5328 75.5661 38.7788C75.5661 25.0909 64.4733 14 50.7831 14C37.0928 14 26 25.0909 26 38.7788C26 52.4668 37.0928 63.5577 50.7831 63.5577C56.538 63.5577 61.8282 61.6039 66.0342 58.316V60.2578C66.0342 61.0202 66.3321 61.7469 66.8682 62.283L78.7474 74.1601C79.8674 75.28 81.6785 75.28 82.7866 74.1601L86.1585 70.7888C87.2785 69.669 87.2785 67.8582 86.1704 66.7384ZM50.7831 54.0273C42.3592 54.0273 35.5319 47.2132 35.5319 38.7788C35.5319 30.3564 42.3473 23.5303 50.7831 23.5303C59.2069 23.5303 66.0342 30.3445 66.0342 38.7788C66.0342 47.2013 59.2188 54.0273 50.7831 54.0273Z" fill="#E4EFFF"/>
</g>
<defs>
<filter id="filter0_d_1_138" x="0" y="0" width="113" height="97" filterUnits="userSpaceOnUse" color-interpolation-filters="sRGB">
<feFlood flood-opacity="0" result="BackgroundImageFix"/>
<feColorMatrix in="SourceAlpha" type="matrix" values="0 0 0 0 0 0 0 0 0 0 0 0 0 0 0 0 0 0 127 0" result="hardAlpha"/>
<feOffset dy="4"/>
<feGaussianBlur stdDeviation="2"/>
<feComposite in2="hardAlpha" operator="out"/>
<feColorMatrix type="matrix" values="0 0 0 0 0 0 0 0 0 0 0 0 0 0 0 0 0 0 0.25 0"/>
<feBlend mode="normal" in2="BackgroundImageFix" result="effect1_dropShadow_1_138"/>
<feBlend mode="normal" in="SourceGraphic" in2="effect1_dropShadow_1_138" result="shape"/>
</filter>
<filter id="filter1_d_1_138" x="22" y="14" width="69" height="69" filterUnits="userSpaceOnUse" color-interpolation-filters="sRGB">
<feFlood flood-opacity="0" result="BackgroundImageFix"/>
<feColorMatrix in="SourceAlpha" type="matrix" values="0 0 0 0 0 0 0 0 0 0 0 0 0 0 0 0 0 0 127 0" result="hardAlpha"/>
<feOffset dy="4"/>
<feGaussianBlur stdDeviation="2"/>
<feComposite in2="hardAlpha" operator="out"/>
<feColorMatrix type="matrix" values="0 0 0 0 0 0 0 0 0 0 0 0 0 0 0 0 0 0 0.25 0"/>
<feBlend mode="normal" in2="BackgroundImageFix" result="effect1_dropShadow_1_138"/>
<feBlend mode="normal" in="SourceGraphic" in2="effect1_dropShadow_1_138" result="shape"/>
</filter>
</defs>
</svg>
