<?xml version="1.0" encoding="utf-8"?>
<!-- Generator: Adobe Illustrator 27.1.1, SVG Export Plug-In . SVG Version: 6.00 Build 0)  -->
<svg version="1.1" xmlns="http://www.w3.org/2000/svg" xmlns:xlink="http://www.w3.org/1999/xlink" x="0px" y="0px"
	 viewBox="0 0 30 30" style="enable-background:new 0 0 30 30;" xml:space="preserve">
<style type="text/css">
	.st0{fill:#020076;}
	.st1{fill:none;stroke:#020076;stroke-width:2;stroke-miterlimit:10;}
	.st2{fill:none;stroke:#020076;stroke-width:2;stroke-linecap:round;stroke-miterlimit:10;}
	.st3{fill:none;stroke:#020076;stroke-width:3;stroke-miterlimit:10;}
	.st4{fill:none;stroke:#020076;stroke-width:1.5;stroke-miterlimit:10;}
	.st5{fill:none;stroke:#020076;stroke-miterlimit:10;}
	.st6{fill:#020076;fill-opacity:0.6;}
	.st7{fill:#020076;fill-opacity:0.2;}
	.st8{fill:#020076;fill-opacity:0.3;}
	.st9{fill:#020076;fill-opacity:0.5;}
	.st10{fill:#020076;fill-opacity:0.1;}
	.st11{fill:#020076;fill-opacity:0.7;}
	.st12{fill:#020076;fill-opacity:0.8;}
	.st13{fill:#020076;fill-opacity:0.4;}
	.st14{fill:none;stroke:#020076;}
	.st15{fill:#FE0B0B;}
	.st16{fill:#8BFF78;}
	.st17{fill:#FF7E27;}
	.st18{fill:#FFFFFF;}
</style>
<g id="dunkelblau">
	<path class="st0" d="M0.19,24.52c8.6,0,17.19,0,25.79,0c0.09,1.18-0.71,2.5-1.87,3.05c-0.36,0.17-0.75,0.25-1.13,0.37
		c-6.59,0-13.17,0-19.76,0c-0.04-0.02-0.09-0.04-0.13-0.05c-0.94-0.15-1.69-0.62-2.26-1.39c-0.35-0.47-0.52-1.02-0.64-1.59
		C0.19,24.79,0.19,24.66,0.19,24.52z"/>
	<path class="st0" d="M2.5,10.19h21.02c0.42,0,0.76,0.34,0.76,0.76v0.94h4.16c0.54,0,0.99,0.44,0.99,0.98c0,0.97,0,2.42,0,3.27
		c-0.01,2.68-1.55,4.89-4.09,5.76c-0.63,0.21-1.32,0.27-1.99,0.32c-0.63,0.05-1.26,0-1.89,0.02c-0.14,0-0.36,0.08-0.47,0.17
		c-0.6,0.46-1.18,0.93-1.78,1.39c-0.1,0.08-0.3,0.14-0.43,0.14c-3.81,0.01-7.61,0.01-11.42,0c-0.15,0-0.3-0.05-0.42-0.13
		c-2.96-2.03-4.69-4.83-4.97-8.41c-0.12-1.54-0.04-3.09-0.03-4.66C1.95,10.43,2.2,10.19,2.5,10.19z M24.28,13.62
		c0.12,2.48-0.44,4.77-1.77,6.89c0.41,0,0.76,0.01,1.11,0c1.68-0.06,3.23-1.18,3.82-2.76c0.5-1.35,0.18-2.74,0.3-4.13
		C26.57,13.62,25.45,13.62,24.28,13.62z"/>
	<path class="st0" d="M11.21,2.24c0.27-0.41,0.58-0.88,0.89-1.34c1.65,1.04,1.75,3.5,0.19,4.7c-0.43,0.33-0.76,0.69-0.7,1.28
		c0.04,0.36,0.24,0.63,0.51,0.87c-0.31,0.47-0.61,0.92-0.94,1.41c-0.54-0.34-0.9-0.81-1.12-1.39C9.59,6.53,9.98,5.2,11.03,4.41
		c0.48-0.36,0.79-0.79,0.61-1.41C11.56,2.75,11.37,2.52,11.21,2.24z"/>
	<path class="st0" d="M16.37,7.77c-0.3,0.45-0.6,0.91-0.92,1.38c-0.74-0.5-1.17-1.18-1.27-2.05c-0.13-1.09,0.23-2.03,1.13-2.68
		c0.74-0.53,0.95-1.42,0.15-2.14c0.31-0.46,0.61-0.92,0.92-1.38c1.03,0.57,1.56,2,1.2,3.22c-0.2,0.67-0.61,1.19-1.17,1.61
		c-0.54,0.41-0.69,0.99-0.41,1.53C16.08,7.44,16.22,7.58,16.37,7.77z"/>
</g>
<g id="Farben">
</g>
<g id="Hilfslinien">
</g>
</svg>
