<?xml version="1.0" encoding="utf-8"?>
<!-- Generator: Adobe Illustrator 27.1.1, SVG Export Plug-In . SVG Version: 6.00 Build 0)  -->
<svg version="1.1" xmlns="http://www.w3.org/2000/svg" xmlns:xlink="http://www.w3.org/1999/xlink" x="0px" y="0px"
	 viewBox="0 0 29.86 29.86" style="enable-background:new 0 0 29.86 29.86;" xml:space="preserve">
<style type="text/css">
	.st0{fill:#020076;}
	.st1{fill:none;stroke:#020076;stroke-width:2;stroke-miterlimit:10;}
	.st2{fill:none;stroke:#020076;stroke-width:2;stroke-linecap:round;stroke-miterlimit:10;}
	.st3{fill:none;stroke:#020076;stroke-width:3;stroke-miterlimit:10;}
	.st4{fill:none;stroke:#020076;stroke-width:1.5;stroke-miterlimit:10;}
	.st5{fill:none;stroke:#020076;stroke-miterlimit:10;}
	.st6{fill:#020076;fill-opacity:0.6;}
	.st7{fill:#020076;fill-opacity:0.2;}
	.st8{fill:#020076;fill-opacity:0.3;}
	.st9{fill:#020076;fill-opacity:0.5;}
	.st10{fill:#020076;fill-opacity:0.1;}
	.st11{fill:#020076;fill-opacity:0.7;}
	.st12{fill:#020076;fill-opacity:0.8;}
	.st13{fill:#020076;fill-opacity:0.4;}
	.st14{fill:none;stroke:#020076;}
	.st15{fill:#FE0B0B;}
	.st16{fill:#8BFF78;}
	.st17{fill:#FF7E27;}
	.st18{fill:#FFFFFF;}
</style>
<g id="dunkelblau">
	<g>
		<path class="st0" d="M27.23,9.73c0.82-0.74,0.89-2.01,0.15-2.82l-0.56-0.62C26.09,5.47,24.82,5.4,24,6.14L11.68,17.22
			c-0.82,0.74-2.09,0.67-2.82-0.15l-2.78-3.09c-0.74-0.82-2.01-0.89-2.82-0.15l-0.62,0.56c-0.82,0.74-0.89,2.01-0.15,2.82l6,6.67
			c0.74,0.82,1.37,1.46,1.4,1.43c0.04-0.03,0.07-0.06,0.07-0.05s0.68-0.6,1.49-1.33L27.23,9.73z"/>
	</g>
</g>
<g id="Farben">
</g>
<g id="Hilfslinien">
</g>
</svg>
