<?xml version="1.0" encoding="utf-8"?>
<!-- Generator: Adobe Illustrator 27.1.1, SVG Export Plug-In . SVG Version: 6.00 Build 0)  -->
<svg version="1.1" xmlns="http://www.w3.org/2000/svg" xmlns:xlink="http://www.w3.org/1999/xlink" x="0px" y="0px"
	 viewBox="0 0 30 30" style="enable-background:new 0 0 30 30;" xml:space="preserve">
<style type="text/css">
	.st0{fill:#020076;}
	.st1{fill:none;stroke:#020076;stroke-width:2;stroke-miterlimit:10;}
	.st2{fill:none;stroke:#020076;stroke-width:2;stroke-linecap:round;stroke-miterlimit:10;}
	.st3{fill:none;stroke:#020076;stroke-width:3;stroke-miterlimit:10;}
	.st4{fill:none;stroke:#020076;stroke-width:1.5;stroke-miterlimit:10;}
	.st5{fill:none;stroke:#020076;stroke-miterlimit:10;}
	.st6{fill:#020076;fill-opacity:0.6;}
	.st7{fill:#020076;fill-opacity:0.2;}
	.st8{fill:#020076;fill-opacity:0.3;}
	.st9{fill:#020076;fill-opacity:0.5;}
	.st10{fill:#020076;fill-opacity:0.1;}
	.st11{fill:#020076;fill-opacity:0.7;}
	.st12{fill:#020076;fill-opacity:0.8;}
	.st13{fill:#020076;fill-opacity:0.4;}
	.st14{fill:none;stroke:#020076;}
	.st15{fill:#FE0B0B;}
	.st16{fill:#8BFF78;}
	.st17{fill:#FF7E27;}
	.st18{fill:#FFFFFF;}
</style>
<g id="dunkelblau">
	<path class="st0" d="M28.88,23.75L16.66,3.77c-0.94-1.54-3.19-1.51-4.09,0.06L1.09,23.8c-0.91,1.59,0.23,3.56,2.06,3.56h23.7
		C28.71,27.37,29.85,25.33,28.88,23.75z M13.53,8.51c0-0.09,0.08-0.17,0.17-0.17h2.61c0.09,0,0.17,0.08,0.17,0.17v10.68
		c0,0.09-0.08,0.17-0.17,0.17H13.7c-0.09,0-0.17-0.08-0.17-0.17V8.51z M15,24.11c-0.92,0-1.66-0.74-1.66-1.66
		c0-0.92,0.74-1.66,1.66-1.66c0.92,0,1.66,0.74,1.66,1.66C16.66,23.37,15.92,24.11,15,24.11z"/>
</g>
<g id="Farben">
</g>
<g id="Hilfslinien">
</g>
</svg>
