<?xml version="1.0" encoding="utf-8"?>
<!-- Generator: Adobe Illustrator 27.1.1, SVG Export Plug-In . SVG Version: 6.00 Build 0)  -->
<svg version="1.1" xmlns="http://www.w3.org/2000/svg" xmlns:xlink="http://www.w3.org/1999/xlink" x="0px" y="0px"
	 viewBox="0 0 30 30" style="enable-background:new 0 0 30 30;" xml:space="preserve">
<style type="text/css">
	.st0{fill:#020076;}
	.st1{fill:none;stroke:#020076;stroke-width:2;stroke-miterlimit:10;}
	.st2{fill:none;stroke:#020076;stroke-width:2;stroke-linecap:round;stroke-miterlimit:10;}
	.st3{fill:none;stroke:#020076;stroke-width:3;stroke-miterlimit:10;}
	.st4{fill:none;stroke:#020076;stroke-width:1.5;stroke-miterlimit:10;}
	.st5{fill:none;stroke:#020076;stroke-miterlimit:10;}
	.st6{fill:#020076;fill-opacity:0.6;}
	.st7{fill:#020076;fill-opacity:0.2;}
	.st8{fill:#020076;fill-opacity:0.3;}
	.st9{fill:#020076;fill-opacity:0.5;}
	.st10{fill:#020076;fill-opacity:0.1;}
	.st11{fill:#020076;fill-opacity:0.7;}
	.st12{fill:#020076;fill-opacity:0.8;}
	.st13{fill:#020076;fill-opacity:0.4;}
	.st14{fill:none;stroke:#020076;}
	.st15{fill:#FE0B0B;}
	.st16{fill:#8BFF78;}
	.st17{fill:#FF7E27;}
	.st18{fill:#FFFFFF;}
</style>
<g id="dunkelblau">
	<path class="st0" d="M25.56,3.76h-6.16V2.14c0-0.09-0.07-0.17-0.17-0.17h-8.48c-0.09,0-0.17,0.07-0.17,0.17v1.62H4.44
		c-0.15,0-0.28,0.12-0.28,0.28v3.02c0,0.15,0.12,0.28,0.28,0.28h21.13c0.15,0,0.28-0.12,0.28-0.28V4.04
		C25.84,3.89,25.72,3.76,25.56,3.76z"/>
	<path class="st0" d="M5.38,7.98v18.37c0,0.33,0.27,0.6,0.6,0.6h17.77c0.33,0,0.6-0.27,0.6-0.6V7.98H5.38z"/>
</g>
<g id="Farben">
</g>
<g id="Hilfslinien">
</g>
</svg>
