<?xml version="1.0" encoding="utf-8"?>
<!-- Generator: Adobe Illustrator 27.1.1, SVG Export Plug-In . SVG Version: 6.00 Build 0)  -->
<svg version="1.1" xmlns="http://www.w3.org/2000/svg" xmlns:xlink="http://www.w3.org/1999/xlink" x="0px" y="0px"
	 viewBox="0 0 29.86 29.86" style="enable-background:new 0 0 29.86 29.86;" xml:space="preserve">
<style type="text/css">
	.st0{fill:#020076;}
	.st1{fill:none;stroke:#020076;stroke-width:2;stroke-miterlimit:10;}
	.st2{fill:none;stroke:#020076;stroke-width:2;stroke-linecap:round;stroke-miterlimit:10;}
	.st3{fill:none;stroke:#020076;stroke-width:3;stroke-miterlimit:10;}
	.st4{fill:none;stroke:#020076;stroke-width:1.5;stroke-miterlimit:10;}
	.st5{fill:none;stroke:#020076;stroke-miterlimit:10;}
	.st6{fill:#020076;fill-opacity:0.6;}
	.st7{fill:#020076;fill-opacity:0.2;}
	.st8{fill:#020076;fill-opacity:0.3;}
	.st9{fill:#020076;fill-opacity:0.5;}
	.st10{fill:#020076;fill-opacity:0.1;}
	.st11{fill:#020076;fill-opacity:0.7;}
	.st12{fill:#020076;fill-opacity:0.8;}
	.st13{fill:#020076;fill-opacity:0.4;}
	.st14{fill:none;stroke:#020076;}
	.st15{fill:#FE0B0B;}
	.st16{fill:#8BFF78;}
	.st17{fill:#FF7E27;}
	.st18{fill:#FFFFFF;}
</style>
<g id="dunkelblau">
	<path class="st0" d="M12.21,3.68l1.38-1.32c0.58-0.56,1.52-0.56,2.1,0l12.05,11.56c0.58,0.56,0.58,1.46,0,2.02L15.69,27.5
		c-0.58,0.56-1.52,0.56-2.1,0l-1.38-1.32c-0.59-0.57-0.58-1.49,0.02-2.04l7.47-6.83H1.89c-0.82,0-1.49-0.64-1.49-1.43v-1.9
		c0-0.79,0.66-1.43,1.49-1.43H19.7l-7.47-6.83C11.63,5.17,11.61,4.24,12.21,3.68z"/>
</g>
<g id="Farben">
</g>
<g id="Hilfslinien">
</g>
</svg>
