<?xml version="1.0" encoding="utf-8"?>
<!-- Generator: Adobe Illustrator 27.1.1, SVG Export Plug-In . SVG Version: 6.00 Build 0)  -->
<svg version="1.1" xmlns="http://www.w3.org/2000/svg" xmlns:xlink="http://www.w3.org/1999/xlink" x="0px" y="0px"
	 viewBox="0 0 30 30" style="enable-background:new 0 0 30 30;" xml:space="preserve">
<style type="text/css">
	.st0{fill:#020076;}
	.st1{fill:none;stroke:#020076;stroke-width:2;stroke-miterlimit:10;}
	.st2{fill:none;stroke:#020076;stroke-width:2;stroke-linecap:round;stroke-miterlimit:10;}
	.st3{fill:none;stroke:#020076;stroke-width:3;stroke-miterlimit:10;}
	.st4{fill:none;stroke:#020076;stroke-width:1.5;stroke-miterlimit:10;}
	.st5{fill:none;stroke:#020076;stroke-miterlimit:10;}
	.st6{fill:#020076;fill-opacity:0.6;}
	.st7{fill:#020076;fill-opacity:0.2;}
	.st8{fill:#020076;fill-opacity:0.3;}
	.st9{fill:#020076;fill-opacity:0.5;}
	.st10{fill:#020076;fill-opacity:0.1;}
	.st11{fill:#020076;fill-opacity:0.7;}
	.st12{fill:#020076;fill-opacity:0.8;}
	.st13{fill:#020076;fill-opacity:0.4;}
	.st14{fill:none;stroke:#020076;}
	.st15{fill:#FE0B0B;}
	.st16{fill:#8BFF78;}
	.st17{fill:#FF7E27;}
	.st18{fill:#FFFFFF;}
</style>
<g id="dunkelblau">
	<g>
		<path class="st2" d="M4.48,22.34c0,0-0.57,0-1.26,0s-1.26-0.9-1.26-2V4.11c0-1.1,0.9-2,2-2h15.96c1.1,0,2,0.49,2,1.1s0,1.1,0,1.1"
			/>
	</g>
	<g>
		<path class="st0" d="M10.14,22.51c-0.33,0.44-0.15,0.8,0.4,0.8h13.61c0.55,0,0.67-0.31,0.27-0.68l-2.38-2.23
			c-0.4-0.38-1.13-0.48-1.63-0.24l-0.68,0.33c-0.49,0.24-1.18,0.09-1.53-0.34l-2.61-3.23c-0.33-0.41-0.95-0.4-1.27,0.02L10.14,22.51
			z"/>
	</g>
	<circle class="st0" cx="21.92" cy="16.63" r="1.54"/>
	<path class="st1" d="M26,27.89H8.68c-1.12,0-2.03-0.91-2.03-2.03V8.54c0-1.12,0.91-2.03,2.03-2.03H26c1.12,0,2.03,0.91,2.03,2.03
		v17.32C28.03,26.98,27.12,27.89,26,27.89z"/>
</g>
<g id="Farben">
</g>
<g id="Hilfslinien">
</g>
</svg>
