<?xml version="1.0" encoding="utf-8"?>
<!-- Generator: Adobe Illustrator 27.1.1, SVG Export Plug-In . SVG Version: 6.00 Build 0)  -->
<svg version="1.1" xmlns="http://www.w3.org/2000/svg" xmlns:xlink="http://www.w3.org/1999/xlink" x="0px" y="0px"
	 viewBox="0 0 29.86 29.86" style="enable-background:new 0 0 29.86 29.86;" xml:space="preserve">
<style type="text/css">
	.st0{fill:#020076;}
	.st1{fill:none;stroke:#020076;stroke-width:2;stroke-miterlimit:10;}
	.st2{fill:none;stroke:#020076;stroke-width:2;stroke-linecap:round;stroke-miterlimit:10;}
	.st3{fill:none;stroke:#020076;stroke-width:3;stroke-miterlimit:10;}
	.st4{fill:none;stroke:#020076;stroke-width:1.5;stroke-miterlimit:10;}
	.st5{fill:none;stroke:#020076;stroke-miterlimit:10;}
	.st6{fill:#020076;fill-opacity:0.6;}
	.st7{fill:#020076;fill-opacity:0.2;}
	.st8{fill:#020076;fill-opacity:0.3;}
	.st9{fill:#020076;fill-opacity:0.5;}
	.st10{fill:#020076;fill-opacity:0.1;}
	.st11{fill:#020076;fill-opacity:0.7;}
	.st12{fill:#020076;fill-opacity:0.8;}
	.st13{fill:#020076;fill-opacity:0.4;}
	.st14{fill:none;stroke:#020076;}
	.st15{fill:#FE0B0B;}
	.st16{fill:#8BFF78;}
	.st17{fill:#FF7E27;}
	.st18{fill:#FFFFFF;}
</style>
<g id="dunkelblau">
	<g>
		<path class="st0" d="M12.67,25.99c0-0.27,0.22-0.5,0.5-0.5h3.52c0.27,0,0.5,0.23,0.5,0.5v0.06c0,0.27-0.23,0.5-0.5,0.5h-3.52
			c-0.28,0-0.5-0.23-0.5-0.5V25.99z"/>
	</g>
	<g>
		<path class="st1" d="M25.12,25.95c0,1.1-0.9,2-2,2H6.74c-1.1,0-2-0.9-2-2V3.91c0-1.1,0.9-2,2-2h16.38c1.1,0,2,0.9,2,2V25.95z"/>
	</g>
</g>
<g id="Farben">
</g>
<g id="Hilfslinien">
</g>
</svg>
