<?xml version="1.0" encoding="utf-8"?>
<!-- Generator: Adobe Illustrator 27.1.1, SVG Export Plug-In . SVG Version: 6.00 Build 0)  -->
<svg version="1.1" xmlns="http://www.w3.org/2000/svg" xmlns:xlink="http://www.w3.org/1999/xlink" x="0px" y="0px"
	 viewBox="0 0 30 30" style="enable-background:new 0 0 30 30;" xml:space="preserve">
<style type="text/css">
	.st0{fill:#020076;}
	.st1{fill:none;stroke:#020076;stroke-width:2;stroke-miterlimit:10;}
	.st2{fill:none;stroke:#020076;stroke-width:2;stroke-linecap:round;stroke-miterlimit:10;}
	.st3{fill:none;stroke:#020076;stroke-width:3;stroke-miterlimit:10;}
	.st4{fill:none;stroke:#020076;stroke-width:1.5;stroke-miterlimit:10;}
	.st5{fill:none;stroke:#020076;stroke-miterlimit:10;}
	.st6{fill:#020076;fill-opacity:0.6;}
	.st7{fill:#020076;fill-opacity:0.2;}
	.st8{fill:#020076;fill-opacity:0.3;}
	.st9{fill:#020076;fill-opacity:0.5;}
	.st10{fill:#020076;fill-opacity:0.1;}
	.st11{fill:#020076;fill-opacity:0.7;}
	.st12{fill:#020076;fill-opacity:0.8;}
	.st13{fill:#020076;fill-opacity:0.4;}
	.st14{fill:none;stroke:#020076;}
	.st15{fill:#FE0B0B;}
	.st16{fill:#8BFF78;}
	.st17{fill:#FF7E27;}
	.st18{fill:#FFFFFF;}
</style>
<g id="dunkelblau">
	<g id="_x34__00000162311103273493111810000013334792039549161352_">
		<g>
			<path class="st0" d="M13.92,4.08L5.75,9.52H3.03c-1,0-1.82,0.81-1.82,1.82v7.26c0,1,0.81,1.82,1.82,1.82h2.72l8.17,5.45
				c1,0,1.82-0.81,1.82-1.82V5.89C15.74,4.89,14.93,4.08,13.92,4.08z M23.91,14.97c0-3.2-2.37-5.82-5.45-6.27v1.82
				c2.07,0.42,3.63,2.25,3.63,4.45c0,2.2-1.56,4.03-3.63,4.45v1.82C21.54,20.79,23.91,18.17,23.91,14.97z M18.46,2.27v1.87
				c5.33,1.03,9.08,5.38,9.08,10.83c0,5.43-3.63,9.63-9.08,10.84v1.87c6.15-0.9,10.9-6.21,10.9-12.7S24.62,3.17,18.46,2.27z"/>
		</g>
	</g>
</g>
<g id="Farben">
</g>
<g id="Hilfslinien">
</g>
</svg>
