<?xml version="1.0" encoding="utf-8"?>
<!-- Generator: Adobe Illustrator 27.1.1, SVG Export Plug-In . SVG Version: 6.00 Build 0)  -->
<svg version="1.1" xmlns="http://www.w3.org/2000/svg" xmlns:xlink="http://www.w3.org/1999/xlink" x="0px" y="0px"
	 viewBox="0 0 29.86 29.86" style="enable-background:new 0 0 29.86 29.86;" xml:space="preserve">
<style type="text/css">
	.st0{fill:#020076;}
	.st1{fill:none;stroke:#020076;stroke-width:2;stroke-miterlimit:10;}
	.st2{fill:none;stroke:#020076;stroke-width:2;stroke-linecap:round;stroke-miterlimit:10;}
	.st3{fill:none;stroke:#020076;stroke-width:3;stroke-miterlimit:10;}
	.st4{fill:none;stroke:#020076;stroke-width:1.5;stroke-miterlimit:10;}
	.st5{fill:none;stroke:#020076;stroke-miterlimit:10;}
	.st6{fill:#020076;fill-opacity:0.6;}
	.st7{fill:#020076;fill-opacity:0.2;}
	.st8{fill:#020076;fill-opacity:0.3;}
	.st9{fill:#020076;fill-opacity:0.5;}
	.st10{fill:#020076;fill-opacity:0.1;}
	.st11{fill:#020076;fill-opacity:0.7;}
	.st12{fill:#020076;fill-opacity:0.8;}
	.st13{fill:#020076;fill-opacity:0.4;}
	.st14{fill:none;stroke:#020076;}
	.st15{fill:#FE0B0B;}
	.st16{fill:#8BFF78;}
	.st17{fill:#FF7E27;}
	.st18{fill:#FFFFFF;}
</style>
<g id="dunkelblau">
</g>
<g id="Farben">
	<path class="st15" d="M5.57,24.77l-0.49-0.49c-0.79-0.79-0.79-2.06,0-2.85L21.44,5.09c0.79-0.79,2.06-0.79,2.85,0l0.49,0.49
		c0.79,0.79,0.79,2.06,0,2.85L8.42,24.77C7.63,25.55,6.36,25.55,5.57,24.77z"/>
	<path class="st15" d="M24.78,24.27l-0.52,0.52c-0.78,0.78-2.04,0.78-2.81,0L5.07,8.4c-0.78-0.78-0.78-2.04,0-2.81l0.52-0.52
		c0.78-0.78,2.04-0.78,2.81,0l16.38,16.38C25.56,22.23,25.56,23.49,24.78,24.27z"/>
</g>
<g id="Hilfslinien">
</g>
</svg>
