<?xml version="1.0" encoding="utf-8"?>
<!-- Generator: Adobe Illustrator 27.1.1, SVG Export Plug-In . SVG Version: 6.00 Build 0)  -->
<svg version="1.1" xmlns="http://www.w3.org/2000/svg" xmlns:xlink="http://www.w3.org/1999/xlink" x="0px" y="0px"
	 viewBox="0 0 30 30" style="enable-background:new 0 0 30 30;" xml:space="preserve">
<style type="text/css">
	.st0{fill:#020076;}
	.st1{fill:none;stroke:#020076;stroke-width:2;stroke-miterlimit:10;}
	.st2{fill:none;stroke:#020076;stroke-width:2;stroke-linecap:round;stroke-miterlimit:10;}
	.st3{fill:none;stroke:#020076;stroke-width:3;stroke-miterlimit:10;}
	.st4{fill:none;stroke:#020076;stroke-width:1.5;stroke-miterlimit:10;}
	.st5{fill:none;stroke:#020076;stroke-miterlimit:10;}
	.st6{fill:#020076;fill-opacity:0.6;}
	.st7{fill:#020076;fill-opacity:0.2;}
	.st8{fill:#020076;fill-opacity:0.3;}
	.st9{fill:#020076;fill-opacity:0.5;}
	.st10{fill:#020076;fill-opacity:0.1;}
	.st11{fill:#020076;fill-opacity:0.7;}
	.st12{fill:#020076;fill-opacity:0.8;}
	.st13{fill:#020076;fill-opacity:0.4;}
	.st14{fill:none;stroke:#020076;}
	.st15{fill:#FE0B0B;}
	.st16{fill:#8BFF78;}
	.st17{fill:#FF7E27;}
	.st18{fill:#FFFFFF;}
</style>
<g id="dunkelblau">
	<path class="st0" d="M4.71,6.74l0.75,4.12l4.53,1.5l4.27-2.9l-0.31-4.49l-3.59-2.17C10.36,2.79,6.78,3.58,4.71,6.74z"/>
	<path class="st0" d="M18.47,27.81l1.77-3.8l-2.84-3.84l-5.16-0.09L9.9,23.93l1.68,3.85C11.58,27.78,14.96,29.2,18.47,27.81z"/>
	<path class="st0" d="M4.11,22.33l4.16,0.47l2.74-3.91l-1.56-4.92l-4.39-0.99l-3.11,2.81C1.96,15.79,1.68,19.44,4.11,22.33z"/>
	<path class="st0" d="M25.39,6.88l-0.66,4.09l-4.62,1.53l-4.27-2.9l0.31-4.49l3.59-2.17C19.74,2.93,23.32,3.72,25.39,6.88z"/>
	<path class="st0" d="M25.71,22.33l-4.16,0.47l-2.74-3.91l1.56-4.92l4.39-0.99l3.11,2.81C27.87,15.79,28.14,19.44,25.71,22.33z"/>
	<path class="st0" d="M11.92,2.33l2.7,1.54C14.83,3.99,15.07,4,15.29,3.9l2.93-1.38C18.22,2.52,16.22,1.25,11.92,2.33z"/>
	<path class="st0" d="M25.12,23.82l-3.07,0.53c-0.24,0.04-0.44,0.19-0.54,0.41l-1.38,2.93C20.13,27.69,22.48,27.4,25.12,23.82z"/>
	<path class="st0" d="M4.71,23.82l3.07,0.53c0.24,0.04,0.44,0.19,0.54,0.41l1.38,2.93C9.7,27.69,7.34,27.4,4.71,23.82z"/>
	<path class="st0" d="M3.65,8.21l0.51,3.07c0.04,0.24-0.03,0.47-0.21,0.64L1.64,14.2C1.64,14.2,1.14,11.88,3.65,8.21z"/>
	<path class="st0" d="M26.26,8.21l-0.51,3.07c-0.04,0.24,0.03,0.47,0.21,0.64l2.31,2.27C28.28,14.2,28.77,11.88,26.26,8.21z"/>
	<polygon class="st0" points="18.81,13.52 17.33,18.28 12.23,18.2 10.8,13.51 14.93,10.84 	"/>
</g>
<g id="Farben">
</g>
<g id="Hilfslinien">
</g>
</svg>
