<svg width="28" height="28" viewBox="0 0 28 28" fill="none" xmlns="http://www.w3.org/2000/svg">
<path d="M14 8.40005C12.4536 8.40005 11.2 7.14645 11.2 5.60005C11.2 4.05365 12.4536 2.80005 14 2.80005C15.5463 2.80005 16.8 4.05365 16.8 5.60005C16.8 7.14645 15.5463 8.40005 14 8.40005Z" fill="white"/>
<path d="M14 16.8C12.4536 16.8 11.2 15.5464 11.2 14C11.2 12.4537 12.4536 11.2 14 11.2C15.5463 11.2 16.8 12.4537 16.8 14C16.8 15.5464 15.5463 16.8 14 16.8Z" fill="white"/>
<path d="M14 25.2001C12.4536 25.2001 11.2 23.9464 11.2 22.4001C11.2 20.8537 12.4536 19.6 14 19.6C15.5463 19.6 16.8 20.8537 16.8 22.4001C16.8 23.9464 15.5463 25.2001 14 25.2001Z" fill="white"/>
</svg>
