<?xml version="1.0" encoding="UTF-8" standalone="no"?>
<!DOCTYPE svg PUBLIC "-//W3C//DTD SVG 1.1//EN" "http://www.w3.org/Graphics/SVG/1.1/DTD/svg11.dtd">
<svg width="100%" height="100%" viewBox="0 0 24 24" version="1.1" xmlns="http://www.w3.org/2000/svg" xmlns:xlink="http://www.w3.org/1999/xlink" xml:space="preserve" xmlns:serif="http://www.serif.com/" style="fill-rule:evenodd;clip-rule:evenodd;stroke-linejoin:round;stroke-miterlimit:2;">
    <g>
        <path d="M21.707,11.294L12.729,2.294C12.341,1.906 11.703,1.905 11.314,2.292L2.293,11.292C2.105,11.48 1.999,11.734 1.999,12C1.999,12.266 2.105,12.52 2.293,12.708L11.314,21.708C11.704,22.097 12.34,22.096 12.729,21.706L21.707,12.706C21.894,12.519 22,12.265 22,12C22,11.735 21.894,11.481 21.707,11.294Z" style="fill-rule:nonzero;"/>
        <g transform="matrix(1,0,0,1,-2.02099,5.54317)">
            <g transform="matrix(1,-0,-0,1,2.02099,-5.54317)">
            </g>
        </g>
    </g>
</svg>
