<svg width="48" height="49" viewBox="0 0 48 49" fill="none" xmlns="http://www.w3.org/2000/svg">
<path fill-rule="evenodd" clip-rule="evenodd" d="M24 34.1C29.3019 34.1 33.6 29.8019 33.6 24.5C33.6 19.1981 29.3019 14.9 24 14.9C18.6981 14.9 14.4 19.1981 14.4 24.5C14.4 29.8019 18.6981 34.1 24 34.1ZM22.4485 21.2515C21.9799 20.7828 21.2201 20.7828 20.7515 21.2515C20.2828 21.7201 20.2828 22.4799 20.7515 22.9485L22.3029 24.5L20.7515 26.0515C20.2828 26.5201 20.2828 27.2799 20.7515 27.7485C21.2201 28.2172 21.9799 28.2172 22.4485 27.7485L24 26.1971L25.5515 27.7485C26.0201 28.2172 26.7799 28.2172 27.2485 27.7485C27.7172 27.2799 27.7172 26.5201 27.2485 26.0515L25.6971 24.5L27.2485 22.9485C27.7172 22.4799 27.7172 21.7201 27.2485 21.2515C26.7799 20.7828 26.0201 20.7828 25.5515 21.2515L24 22.8029L22.4485 21.2515Z" fill="#0F172A"/>
</svg>
