<svg width="82" height="131" viewBox="0 0 82 131" fill="none" xmlns="http://www.w3.org/2000/svg">
<path d="M69.7003 0H12.2997C9.03786 0.00089521 5.90992 1.29504 3.60348 3.59793C1.29704 5.90082 0.000896591 9.02395 0 12.2807L0 118.719C0.000896591 121.976 1.29704 125.099 3.60348 127.402C5.90992 129.705 9.03786 130.999 12.2997 131H69.7003C72.9621 130.999 76.0901 129.705 78.3965 127.402C80.703 125.099 81.9991 121.976 82 118.719V12.2807C81.9991 9.02395 80.703 5.90082 78.3965 3.59793C76.0901 1.29504 72.9621 0.00089521 69.7003 0ZM41 122.812C39.3781 122.812 37.7927 122.332 36.4441 121.432C35.0956 120.533 34.0445 119.254 33.4239 117.758C32.8032 116.262 32.6408 114.615 32.9572 113.027C33.2736 111.439 34.0546 109.98 35.2015 108.835C36.3483 107.69 37.8095 106.91 39.4002 106.594C40.9909 106.278 42.6397 106.44 44.1381 107.06C45.6366 107.68 46.9173 108.729 47.8183 110.076C48.7194 111.422 49.2003 113.005 49.2003 114.625C49.2015 115.7 48.9901 116.765 48.5784 117.759C48.1667 118.753 47.5627 119.656 46.801 120.417C46.0393 121.177 45.1349 121.78 44.1395 122.191C43.144 122.602 42.0772 122.813 41 122.812ZM69.7003 95.1794C69.6981 95.9921 69.3742 96.7711 68.7993 97.3464C68.2243 97.9217 67.4449 98.2468 66.6309 98.2508H15.3758C14.5613 98.2482 13.7808 97.9239 13.2048 97.3488C12.6288 96.7737 12.304 95.9944 12.3014 95.1811V15.3522C12.3036 14.5385 12.6282 13.7589 13.2042 13.1834C13.7803 12.6079 14.561 12.2834 15.3758 12.2807H66.6309C67.4455 12.2834 68.226 12.6077 68.802 13.1828C69.378 13.7579 69.7027 14.5372 69.7054 15.3505L69.7003 95.1794Z" fill="#3961E5" fill-opacity="0.5"/>
</svg>
