<svg width="166" height="190" viewBox="0 0 166 190" fill="none" xmlns="http://www.w3.org/2000/svg">
<path d="M148.215 0H17.7853C13.0688 0.00134266 8.54577 1.87841 5.21067 5.21857C1.87557 8.55872 0.00134062 13.0885 0 17.8122L0 172.188C0.00134062 176.911 1.87557 181.441 5.21067 184.781C8.54577 188.122 13.0688 189.999 17.7853 190H148.215C152.931 189.999 157.454 188.122 160.789 184.781C164.124 181.441 165.999 176.911 166 172.188V17.8122C165.999 13.0885 164.124 8.55872 160.789 5.21857C157.454 1.87841 152.931 0.00134266 148.215 0ZM82.9992 178.122C80.6542 178.122 78.3619 177.426 76.4121 176.121C74.4624 174.816 72.9427 172.962 72.0454 170.792C71.148 168.622 70.9132 166.235 71.3707 163.932C71.8281 161.628 72.9574 159.512 74.6155 157.852C76.2736 156.191 78.3862 155.06 80.6861 154.602C82.986 154.144 85.3699 154.379 87.5364 155.278C89.7028 156.176 91.5545 157.698 92.8573 159.651C94.1601 161.604 94.8555 163.9 94.8555 166.248C94.857 167.808 94.5514 169.353 93.9561 170.794C93.3608 172.235 92.4876 173.545 91.3863 174.648C90.285 175.751 88.9774 176.625 87.5382 177.222C86.099 177.818 84.5566 178.124 82.9992 178.122ZM148.215 138.047C148.211 139.227 147.741 140.357 146.908 141.191C146.074 142.025 144.945 142.495 143.768 142.498H22.2325C21.054 142.495 19.9246 142.025 19.0913 141.19C18.2579 140.355 17.7884 139.224 17.7853 138.044V22.2661C17.7884 21.0858 18.2579 19.9548 19.0913 19.1202C19.9246 18.2856 21.054 17.8154 22.2325 17.8122H143.768C144.946 17.8154 146.075 18.2856 146.909 19.1202C147.742 19.9548 148.212 21.0858 148.215 22.2661V138.047Z" fill="#3961E5"/>
</svg>
