<svg width="18" height="18" viewBox="0 0 18 18" fill="none" xmlns="http://www.w3.org/2000/svg">
<path fill-rule="evenodd" clip-rule="evenodd" d="M15.364 2.63604C11.8492 -0.87868 6.15096 -0.87868 2.63604 2.63604C-0.87868 6.15076 -0.87868 11.849 2.63604 15.364C6.15076 18.8787 11.849 18.8787 15.364 15.364C18.8787 11.8492 18.8787 6.15096 15.364 2.63604ZM11.5382 6.46176C12.9398 7.86329 12.9398 10.1359 11.5382 11.5374C9.28289 13.7928 5.41098 12.1874 5.41098 8.9999C5.41098 5.81237 9.28269 4.20701 11.5382 6.46176ZM9.0001 3.97121C13.4648 3.97121 15.7172 9.39529 12.5562 12.5562C9.39529 15.7172 3.97121 13.4656 3.97121 9.0001C3.97121 6.22276 6.22276 3.97121 9.0001 3.97121Z" fill="#CA0C0C"/>
</svg>
