<svg width="26" height="26" viewBox="0 0 26 26" fill="none" xmlns="http://www.w3.org/2000/svg">
<path fill-rule="evenodd" clip-rule="evenodd" d="M13 25.7999C20.0692 25.7999 25.7999 20.0692 25.7999 13C25.7999 5.93071 20.0692 0.199951 13 0.199951C5.93071 0.199951 0.199951 5.93071 0.199951 13C0.199951 20.0692 5.93071 25.7999 13 25.7999ZM14.6 8.19995C14.6 7.3163 13.8836 6.59995 13 6.59995C12.1163 6.59995 11.4 7.3163 11.4 8.19995V11.4H8.19995C7.3163 11.4 6.59995 12.1163 6.59995 13C6.59995 13.8836 7.3163 14.6 8.19995 14.6H11.4V17.7999C11.4 18.6836 12.1163 19.4 13 19.4C13.8836 19.4 14.6 18.6836 14.6 17.7999V14.6H17.7999C18.6836 14.6 19.4 13.8836 19.4 13C19.4 12.1163 18.6836 11.4 17.7999 11.4H14.6V8.19995Z" fill="#0F172A"/>
</svg>
