<?xml version="1.0" encoding="UTF-8" standalone="no"?>
<!DOCTYPE svg PUBLIC "-//W3C//DTD SVG 1.1//EN" "http://www.w3.org/Graphics/SVG/1.1/DTD/svg11.dtd">
<svg width="100%" height="100%" viewBox="0 0 24 24" version="1.1" xmlns="http://www.w3.org/2000/svg" xmlns:xlink="http://www.w3.org/1999/xlink" xml:space="preserve" xmlns:serif="http://www.serif.com/" style="fill-rule:evenodd;clip-rule:evenodd;stroke-linejoin:round;stroke-miterlimit:2;">
    <g>
        <path d="M12.1,10.3C11.7,10.3 11.3,10.4 10.9,10.7C10.4,11 10.1,11.5 10,12C9.9,12.5 10,13.1 10.3,13.5C10.9,14.4 12.3,14.6 13.2,14C14.1,13.3 14.4,12 13.7,11.1C13.4,10.6 12.8,10.3 12.1,10.3Z" style="fill-rule:nonzero;"/>
        <g transform="matrix(0.823546,0.56725,-0.56725,0.823546,8.73852,-4.59185)">
            <path d="M17.5,21.4L21.4,17.5C22.5,15.7 23,13.7 23,11.7C23,5.5 18,0.5 11.8,0.5C5.6,0.5 0.5,5.5 0.5,11.7C0.5,17.9 5.5,23 11.7,23C13.7,23 15.8,22.4 17.5,21.4ZM20.7,13.2L9.9,20.7C9.8,20.8 9.7,20.8 9.6,20.8L9.5,20.8C9.4,20.8 9.3,20.7 9.2,20.6L3.7,12.7C3.6,12.6 3.6,12.5 3.6,12.3C3.6,12.2 3.7,12.1 3.8,12L6.4,10.2L5.8,9.3C5.7,9.2 5.7,9.1 5.7,9C5.7,8.9 5.8,8.8 5.9,8.7L10.7,5.3C10.8,5.2 10.9,5.2 11.1,5.2C11.2,5.2 11.3,5.3 11.4,5.4L12,6.3L14.6,4.5C14.8,4.3 15.1,4.4 15.3,4.6L20.8,12.5C20.9,12.6 20.9,12.7 20.9,12.9C20.9,13 20.8,13.1 20.7,13.2Z" style="fill-rule:nonzero;"/>
        </g>
        <path d="M23.5,22.8L21.4,17.5C22.5,15.7 23,13.7 23,11.7C23,5.5 18,0.5 11.8,0.5C5.6,0.5 0.5,5.5 0.5,11.7C0.5,17.9 5.5,23 11.7,23C13.7,23 15.8,22.4 17.5,21.4L22.8,23.5L23,23.5C23.1,23.5 23.3,23.5 23.4,23.4C23.5,23.2 23.5,23 23.5,22.8ZM20.7,13.2C20.249,20.052 15.437,20.877 9.9,20.7C9.8,20.8 9.7,20.8 9.6,20.8L9.5,20.8C9.4,20.8 9.3,20.7 9.2,20.6C3.928,19.836 2.348,16.463 1.869,12.27C0.219,8.624 12.943,-0.296 14.559,3.4C14.659,3.3 14.6,4.5 14.6,4.5C14.8,4.3 15.1,4.4 15.3,4.6C20.678,6.245 21.107,9.27 20.8,12.5C20.9,12.6 20.9,12.7 20.9,12.9C20.9,13 20.8,13.1 20.7,13.2Z" style="fill-rule:nonzero;"/>
    </g>
</svg>
