<?xml version="1.0" encoding="UTF-8" standalone="no"?>
<!DOCTYPE svg PUBLIC "-//W3C//DTD SVG 1.1//EN" "http://www.w3.org/Graphics/SVG/1.1/DTD/svg11.dtd">
<svg width="100%" height="100%" viewBox="0 0 35 30" version="1.1" xmlns="http://www.w3.org/2000/svg" xmlns:xlink="http://www.w3.org/1999/xlink" xml:space="preserve" xmlns:serif="http://www.serif.com/" style="fill-rule:evenodd;clip-rule:evenodd;">
    <g transform="matrix(1,0,0,1,0.638741,-2.14666)">
        <path d="M32.018,8.24C32.018,5.673 29.934,3.59 27.368,3.59L5.454,3.59C2.888,3.59 0.804,5.673 0.804,8.24L0.804,25.786C0.804,28.352 2.888,30.436 5.454,30.436L27.368,30.436C29.934,30.436 32.018,28.352 32.018,25.786L32.018,8.24Z" style="fill:rgb(44,61,117);stroke:rgb(44,61,117);stroke-width:0.7px;"/>
        <path d="M21.992,15.617L17.807,15.617L17.807,11.432C17.807,10.918 17.39,10.502 16.877,10.502L15.946,10.502C15.433,10.502 15.016,10.918 15.016,11.432L15.016,15.617L10.831,15.617C10.317,15.617 9.901,16.034 9.901,16.547L9.901,17.477C9.901,17.991 10.317,18.408 10.831,18.408L15.016,18.408L15.016,22.593C15.016,23.107 15.433,23.523 15.946,23.523L16.877,23.523C17.39,23.523 17.807,23.107 17.807,22.593L17.807,18.408L21.992,18.408C22.506,18.408 22.922,17.991 22.922,17.477L22.922,16.547C22.922,16.034 22.506,15.617 21.992,15.617Z" style="fill:white;fill-rule:nonzero;"/>
    </g>
</svg>
