<svg width="21" height="20" viewBox="0 0 21 20" fill="none" xmlns="http://www.w3.org/2000/svg">
<g id="Icon">
<g id="Icon_2">
<path d="M5.5 2.99805C4.39543 2.99805 3.5 3.89348 3.5 4.99805V6.99805C3.5 8.10262 4.39543 8.99805 5.5 8.99805H7.5C8.60457 8.99805 9.5 8.10262 9.5 6.99805V4.99805C9.5 3.89348 8.60457 2.99805 7.5 2.99805H5.5Z" fill="#0D0D0D"/>
<path d="M5.5 10.998C4.39543 10.998 3.5 11.8935 3.5 12.998V14.998C3.5 16.1026 4.39543 16.998 5.5 16.998H7.5C8.60457 16.998 9.5 16.1026 9.5 14.998V12.998C9.5 11.8935 8.60457 10.998 7.5 10.998H5.5Z" fill="#0D0D0D"/>
<path d="M11.5 4.99805C11.5 3.89348 12.3954 2.99805 13.5 2.99805H15.5C16.6046 2.99805 17.5 3.89348 17.5 4.99805V6.99805C17.5 8.10262 16.6046 8.99805 15.5 8.99805H13.5C12.3954 8.99805 11.5 8.10262 11.5 6.99805V4.99805Z" fill="#0D0D0D"/>
<path d="M11.5 12.998C11.5 11.8935 12.3954 10.998 13.5 10.998H15.5C16.6046 10.998 17.5 11.8935 17.5 12.998V14.998C17.5 16.1026 16.6046 16.998 15.5 16.998H13.5C12.3954 16.998 11.5 16.1026 11.5 14.998V12.998Z" fill="#0D0D0D"/>
</g>
</g>
</svg>
