<svg width="24" height="24" viewBox="0 0 24 24" fill="none" xmlns="http://www.w3.org/2000/svg">
<g id="Icon/Solid/clock">
<path id="Icon" fill-rule="evenodd" clip-rule="evenodd" d="M11.9999 21.6004C17.3018 21.6004 21.5999 17.3023 21.5999 12.0004C21.5999 6.69846 17.3018 2.40039 11.9999 2.40039C6.69797 2.40039 2.3999 6.69846 2.3999 12.0004C2.3999 17.3023 6.69797 21.6004 11.9999 21.6004ZM12.9999 7.20039C12.9999 6.64811 12.5522 6.20039 11.9999 6.20039C11.4476 6.20039 10.9999 6.64811 10.9999 7.20039V12.0004C10.9999 12.2656 11.1053 12.52 11.2928 12.7075L14.6869 16.1016C15.0774 16.4921 15.7106 16.4921 16.1011 16.1016C16.4916 15.7111 16.4916 15.0779 16.1011 14.6874L12.9999 11.5862V7.20039Z" fill="#0F172A"/>
</g>
</svg>
