<?xml version="1.0" ?><svg viewBox="0 0 512 512" xmlns="http://www.w3.org/2000/svg"><title/><g id="Street_sign"><path d="M458.0884,234.4116l-47.5-47.5a17.0681,17.0681,0,0,0-12.0884-5.01H273.0981V47a17.0981,17.0981,0,1,0-34.1962,0V67.9019H113.5a17.0681,17.0681,0,0,0-12.0884,5.01l-47.5,47.5a17.0893,17.0893,0,0,0,0,24.1768l47.5,47.5a17.0681,17.0681,0,0,0,12.0884,5.01H238.9019V447.9019H180a17.0981,17.0981,0,0,0,0,34.1962H332a17.0981,17.0981,0,0,0,0-34.1962H273.0981V311.0981H398.5a17.0681,17.0681,0,0,0,12.0884-5.01l47.5-47.5A17.0893,17.0893,0,0,0,458.0884,234.4116Z"/></g></svg>