<svg width="41" height="40" viewBox="0 0 41 40" fill="none" xmlns="http://www.w3.org/2000/svg">
<path d="M30.0037 19.9292L39.4515 10.4814C40.0777 9.85487 40.4295 9.0053 40.4295 8.11947C40.4295 7.23364 40.0777 6.38407 39.4515 5.75752L34.7276 1.03363C34.101 0.407431 33.2515 0.0556641 32.3656 0.0556641C31.4798 0.0556641 30.6302 0.407431 30.0037 1.03363L20.5559 10.4814L11.1081 1.03363C10.4816 0.407431 9.63201 0.0556641 8.74618 0.0556641C7.86035 0.0556641 7.01078 0.407431 6.38423 1.03363L1.66034 5.75752C1.03414 6.38407 0.682373 7.23364 0.682373 8.11947C0.682373 9.0053 1.03414 9.85487 1.66034 10.4814L11.1081 19.9292L1.66034 29.377C1.03414 30.0035 0.682373 30.8531 0.682373 31.7389C0.682373 32.6248 1.03414 33.4743 1.66034 34.1009L6.38423 38.8248C7.01078 39.451 7.86035 39.8027 8.74618 39.8027C9.63201 39.8027 10.4816 39.451 11.1081 38.8248L20.5559 29.377L30.0037 38.8248C30.6302 39.451 31.4798 39.8027 32.3656 39.8027C33.2515 39.8027 34.101 39.451 34.7276 38.8248L39.4515 34.1009C40.0777 33.4743 40.4295 32.6248 40.4295 31.7389C40.4295 30.8531 40.0777 30.0035 39.4515 29.377L30.0037 19.9292Z" fill="#FF0000"/>
</svg>
