<svg width="57" height="53" viewBox="0 0 57 53" fill="none" xmlns="http://www.w3.org/2000/svg">
<g clip-path="url(#clip0_166_470)">
<path d="M51 0H6C2.68629 0 0 2.68629 0 6C0 9.31371 2.68629 12 6 12H51C54.3137 12 57 9.31371 57 6C57 2.68629 54.3137 0 51 0Z" fill="#0B0B09"/>
<path d="M51 41H6C2.68629 41 0 43.6863 0 47C0 50.3137 2.68629 53 6 53H51C54.3137 53 57 50.3137 57 47C57 43.6863 54.3137 41 51 41Z" fill="#0B0B09"/>
<path d="M51 21H6C2.68629 21 0 23.6863 0 27C0 30.3137 2.68629 33 6 33H51C54.3137 33 57 30.3137 57 27C57 23.6863 54.3137 21 51 21Z" fill="#0B0B09"/>
</g>
<defs>
<clipPath id="clip0_166_470">
<rect width="57" height="53" fill="white"/>
</clipPath>
</defs>
</svg>
