<svg width="145" height="108" viewBox="0 0 145 108" fill="none" xmlns="http://www.w3.org/2000/svg">
<g clip-path="url(#clip0_131_1405)">
<path d="M143.781 19.6853C144.235 19.2746 144.509 18.7006 144.541 18.0888C144.574 17.477 144.363 16.8772 143.954 16.4207L129.874 0.763929C129.464 0.30926 128.89 0.0357568 128.278 0.00326373C127.666 -0.0292293 127.066 0.181931 126.61 0.590545L48.821 70.5503C48.3645 70.9589 47.7647 71.17 47.1529 71.1376C46.5411 71.1051 45.9671 70.8316 45.5564 70.3769L19.6853 41.6108C19.2746 41.1561 18.7006 40.8826 18.0888 40.8501C17.477 40.8176 16.8772 41.0288 16.4207 41.4374L0.763927 55.5172C0.309259 55.9279 0.0357568 56.5019 0.00326371 57.1137C-0.0292294 57.7255 0.181932 58.3252 0.590546 58.7817L43.5636 106.568C44.4132 107.516 45.2677 108.145 45.4583 107.972C45.649 107.798 45.8224 107.671 45.8396 107.695C45.8569 107.719 46.643 107.037 47.59 106.187L143.781 19.6853Z" fill="#3961E5"/>
</g>
<defs>
<clipPath id="clip0_131_1405">
<rect width="144.544" height="108" fill="white"/>
</clipPath>
</defs>
</svg>
