<svg width="144" height="145" viewBox="0 0 144 145" fill="none" xmlns="http://www.w3.org/2000/svg">
<circle cx="72" cy="72.5" r="72" fill="#F2F2F2"/>
<circle cx="72" cy="72.5" r="70.5" stroke="black" stroke-opacity="0.95" stroke-width="3" stroke-dasharray="8 8"/>
<path fill-rule="evenodd" clip-rule="evenodd" d="M72.0002 60.6714C73.3635 60.6714 74.4687 61.7766 74.4687 63.14V70.5457L81.8745 70.5457C83.2378 70.5457 84.343 71.6509 84.343 73.0142C84.343 74.3776 83.2378 75.4828 81.8745 75.4828H74.4687V82.8885C74.4687 84.2519 73.3635 85.3571 72.0002 85.3571C70.6368 85.3571 69.5316 84.2519 69.5316 82.8885V75.4828H62.1259C60.7625 75.4828 59.6573 74.3776 59.6573 73.0142C59.6573 71.6509 60.7625 70.5457 62.1259 70.5457H69.5316V63.14C69.5316 61.7766 70.6368 60.6714 72.0002 60.6714Z" fill="black" fill-opacity="0.95"/>
</svg>
