<svg width="44" height="44" viewBox="0 0 44 44" fill="none" xmlns="http://www.w3.org/2000/svg">
<path fill-rule="evenodd" clip-rule="evenodd" d="M22 44C34.1503 44 44 34.1503 44 22C44 9.84974 34.1503 0 22 0C9.84974 0 0 9.84974 0 22C0 34.1503 9.84974 44 22 44ZM18.4445 14.5555C17.3706 13.4815 15.6294 13.4815 14.5555 14.5555C13.4815 15.6294 13.4815 17.3706 14.5555 18.4445L18.1109 22L14.5555 25.5555C13.4815 26.6294 13.4815 28.3706 14.5555 29.4445C15.6294 30.5185 17.3706 30.5185 18.4445 29.4445L22 25.8891L25.5555 29.4445C26.6294 30.5185 28.3706 30.5185 29.4445 29.4445C30.5185 28.3706 30.5185 26.6294 29.4445 25.5555L25.8891 22L29.4445 18.4445C30.5185 17.3706 30.5185 15.6294 29.4445 14.5555C28.3706 13.4815 26.6294 13.4815 25.5555 14.5555L22 18.1109L18.4445 14.5555Z" fill="#0F172A"/>
</svg>
