<svg width="48" height="48" viewBox="0 0 48 48" fill="none" xmlns="http://www.w3.org/2000/svg">
<path fill-rule="evenodd" clip-rule="evenodd" d="M43.2 24C43.2 34.6039 34.6039 43.2001 24 43.2001C13.3961 43.2001 4.79999 34.6039 4.79999 24C4.79999 13.3962 13.3961 4.80005 24 4.80005C34.6039 4.80005 43.2 13.3962 43.2 24ZM26.4 14.4C26.4 15.7255 25.3255 16.8 24 16.8C22.6745 16.8 21.6 15.7255 21.6 14.4C21.6 13.0746 22.6745 12 24 12C25.3255 12 26.4 13.0746 26.4 14.4ZM21.6 21.6C20.2745 21.6 19.2 22.6746 19.2 24C19.2 25.3255 20.2745 26.4 21.6 26.4V33.6C21.6 34.9255 22.6745 36 24 36H26.4C27.7255 36 28.8 34.9255 28.8 33.6C28.8 32.2746 27.7255 31.2001 26.4 31.2001V24C26.4 22.6746 25.3255 21.6 24 21.6H21.6Z" fill="#0F172A"/>
</svg>
