<svg width="58" height="59" viewBox="0 0 58 59" fill="none" xmlns="http://www.w3.org/2000/svg">
<circle cx="28.9444" cy="29.6812" r="28.8521" fill="#3961E5"/>
<path d="M46.3322 21.5111C47.4914 20.4558 47.5904 18.6446 46.5443 17.4894L45.7668 16.5909C44.7207 15.4215 42.9253 15.3216 41.7803 16.377L24.35 32.1788C23.1908 33.2341 21.3955 33.1343 20.3635 31.9649L16.4194 27.558C15.3733 26.3886 13.578 26.2888 12.433 27.3441L11.5565 28.1428C10.3973 29.1981 10.2984 31.0093 11.3445 32.1645L19.8263 41.677C20.8724 42.8464 21.763 43.7592 21.8054 43.7164C21.862 43.6736 21.9044 43.6308 21.9044 43.6451C21.9044 43.6451 22.8657 42.7894 24.0107 41.7483L46.3322 21.5111Z" fill="white"/>
</svg>
