<svg width="100" height="101" viewBox="0 0 100 101" fill="none" xmlns="http://www.w3.org/2000/svg">
<rect y="0.5" width="100" height="100" rx="50" fill="#000AFF"/>
<path d="M55.6344 50.5681L62.7589 41.848L58.9816 39.6714L56.7922 41.9161L43.2106 34.0361L43.2196 34.0225L43.2014 34.0541L39.2047 40.7154V40.7426L39.1864 40.738L52.75 48.9093" fill="white"/>
<path d="M25.3333 73.7934L32.4942 82.4996L35.3503 79.2167L33.5613 76.6407L47.5925 60.5205L47.6062 60.5342L47.5789 60.5069L41.5169 55.2476L41.4852 55.243L41.4942 55.2248L27.4633 71.3452" fill="white"/>
<path d="M30.737 62.1902H38.8197L40.0005 56.9303H46.2216L47.3114 62.1902H55.6666L47.4927 30.5846H39.4555L30.737 62.1902Z" fill="white"/>
<path d="M67.159 40.1623C67.159 40.1623 74.6666 32.4736 74.6666 26.9968C74.6423 25.0069 73.831 23.1073 72.4096 21.7125C70.9882 20.3177 69.0722 19.5408 67.0794 19.5513C65.0866 19.5618 63.1789 20.3589 61.7723 21.7686C60.3657 23.1783 59.5745 25.0863 59.5713 27.0764C59.5713 32.4733 67.159 40.1623 67.159 40.1623Z" fill="white"/>
<path d="M40.5452 82.5H51.6486V78.1468L48.6062 77.3758V56.0185L48.6793 56.0774H48.6477L40.5042 56.0139H40.5405L40.5223 56.0185V82.5H40.5452Z" fill="white"/>
<path d="M46.0486 27.1611C46.9063 27.1566 47.7434 26.8983 48.454 26.4187C49.1647 25.9391 49.717 25.2598 50.041 24.4668C50.3651 23.6737 50.4464 22.8025 50.2746 21.9634C50.1028 21.1242 49.6857 20.3547 49.076 19.7523C48.4663 19.1498 47.6914 18.7415 46.8493 18.5788C46.0072 18.4161 45.1357 18.5065 44.345 18.8385C43.5544 19.1705 42.88 19.7291 42.4073 20.4438C41.9346 21.1585 41.6847 21.9971 41.6893 22.8537C41.6992 24.0009 42.1631 25.0977 42.9798 25.9047C43.7965 26.7117 44.8996 27.1634 46.0486 27.1611Z" fill="white"/>
</svg>
