<svg width="59" height="60" viewBox="0 0 59 60" fill="none" xmlns="http://www.w3.org/2000/svg">
<g filter="url(#filter0_d_1_142)">
<ellipse cx="25.5" cy="30" rx="25.5" ry="26" fill="#E4EFFF"/>
</g>
<path d="M36.875 34.2344V39.7031C36.8754 39.8571 36.8453 40.0097 36.7866 40.152C36.7278 40.2944 36.6415 40.4237 36.5326 40.5326C36.4237 40.6415 36.2944 40.7278 36.152 40.7866C36.0097 40.8453 35.8571 40.8754 35.7031 40.875H30.2344C29.1899 40.875 28.6675 39.6104 29.4043 38.8731L31.1719 37.1055L25.9375 31.8711L20.7017 37.1104L22.4707 38.8731C23.2075 39.6104 22.6851 40.875 21.6406 40.875H16.1719C16.0179 40.8754 15.8653 40.8453 15.723 40.7866C15.5806 40.7278 15.4513 40.6415 15.3424 40.5326C15.2335 40.4237 15.1472 40.2944 15.0884 40.152C15.0297 40.0097 14.9996 39.8571 15 39.7031V34.2344C15 33.1895 16.2642 32.667 17.002 33.4043L18.769 35.1719L24.0068 29.9375L18.7686 24.6982L17.002 26.4707C16.2647 27.208 15 26.6856 15 25.6406V20.1719C14.9996 20.0179 15.0297 19.8653 15.0884 19.723C15.1472 19.5806 15.2335 19.4513 15.3424 19.3424C15.4513 19.2335 15.5806 19.1472 15.723 19.0884C15.8653 19.0297 16.0179 18.9996 16.1719 19H21.6406C22.6851 19 23.2075 20.2647 22.4707 21.002L20.7031 22.7695L25.9375 28.0039L31.1733 22.7647L29.4043 21.002C28.6675 20.2647 29.1899 19 30.2344 19H35.7031C35.8571 18.9996 36.0097 19.0297 36.152 19.0884C36.2944 19.1472 36.4237 19.2335 36.5326 19.3424C36.6415 19.4513 36.7278 19.5806 36.7866 19.723C36.8453 19.8653 36.8754 20.0179 36.875 20.1719V25.6406C36.875 26.6856 35.6108 27.208 34.8731 26.4707L33.106 24.7031L27.8682 29.9375L33.1064 35.1768L34.8731 33.4092C35.6104 32.667 36.875 33.1895 36.875 34.2344Z" fill="#020076"/>
<defs>
<filter id="filter0_d_1_142" x="0" y="0" width="59" height="60" filterUnits="userSpaceOnUse" color-interpolation-filters="sRGB">
<feFlood flood-opacity="0" result="BackgroundImageFix"/>
<feColorMatrix in="SourceAlpha" type="matrix" values="0 0 0 0 0 0 0 0 0 0 0 0 0 0 0 0 0 0 127 0" result="hardAlpha"/>
<feOffset dx="4"/>
<feGaussianBlur stdDeviation="2"/>
<feComposite in2="hardAlpha" operator="out"/>
<feColorMatrix type="matrix" values="0 0 0 0 0 0 0 0 0 0 0 0 0 0 0 0 0 0 0.25 0"/>
<feBlend mode="normal" in2="BackgroundImageFix" result="effect1_dropShadow_1_142"/>
<feBlend mode="normal" in="SourceGraphic" in2="effect1_dropShadow_1_142" result="shape"/>
</filter>
</defs>
</svg>
