<svg width="110" height="110" viewBox="0 0 110 110" fill="none" xmlns="http://www.w3.org/2000/svg">
<g filter="url(#filter0_d_123_210)">
<circle cx="51" cy="55" r="51" fill="#020076"/>
</g>
<g opacity="0.5">
<path d="M50 30C39.5036 30 31 38.5605 31 49.1272C31 57.117 46.8391 81.0173 50 81C53.1094 81.0173 69 57.0132 69 49.1272C69 38.5778 60.4964 30 50 30Z" fill="#E4EFFF"/>
</g>
<path d="M50 30C39.5036 30 31 38.5605 31 49.1272C31 57.117 46.8391 81.0173 50 81C53.1094 81.0173 69 57.0132 69 49.1272C69 38.5778 60.4964 30 50 30Z" fill="#E4EFFF"/>
<defs>
<filter id="filter0_d_123_210" x="0" y="0" width="110" height="110" filterUnits="userSpaceOnUse" color-interpolation-filters="sRGB">
<feFlood flood-opacity="0" result="BackgroundImageFix"/>
<feColorMatrix in="SourceAlpha" type="matrix" values="0 0 0 0 0 0 0 0 0 0 0 0 0 0 0 0 0 0 127 0" result="hardAlpha"/>
<feOffset dx="4"/>
<feGaussianBlur stdDeviation="2"/>
<feComposite in2="hardAlpha" operator="out"/>
<feColorMatrix type="matrix" values="0 0 0 0 0 0 0 0 0 0 0 0 0 0 0 0 0 0 0.25 0"/>
<feBlend mode="normal" in2="BackgroundImageFix" result="effect1_dropShadow_123_210"/>
<feBlend mode="normal" in="SourceGraphic" in2="effect1_dropShadow_123_210" result="shape"/>
</filter>
</defs>
</svg>
