<?xml version="1.0" encoding="utf-8"?>
<!-- Generator: Adobe Illustrator 27.1.1, SVG Export Plug-In . SVG Version: 6.00 Build 0)  -->
<svg version="1.1" xmlns="http://www.w3.org/2000/svg" xmlns:xlink="http://www.w3.org/1999/xlink" x="0px" y="0px"
	 viewBox="0 0 30 30" style="enable-background:new 0 0 30 30;" xml:space="preserve">
<style type="text/css">
	.st0{fill:#020076;}
	.st1{fill:none;stroke:#020076;stroke-width:2;stroke-miterlimit:10;}
	.st2{fill:none;stroke:#020076;stroke-width:2;stroke-linecap:round;stroke-miterlimit:10;}
	.st3{fill:none;stroke:#020076;stroke-width:3;stroke-miterlimit:10;}
	.st4{fill:none;stroke:#020076;stroke-width:1.5;stroke-miterlimit:10;}
	.st5{fill:none;stroke:#020076;stroke-miterlimit:10;}
	.st6{fill:#020076;fill-opacity:0.6;}
	.st7{fill:#020076;fill-opacity:0.2;}
	.st8{fill:#020076;fill-opacity:0.3;}
	.st9{fill:#020076;fill-opacity:0.5;}
	.st10{fill:#020076;fill-opacity:0.1;}
	.st11{fill:#020076;fill-opacity:0.7;}
	.st12{fill:#020076;fill-opacity:0.8;}
	.st13{fill:#020076;fill-opacity:0.4;}
	.st14{fill:none;stroke:#020076;}
	.st15{fill:#FE0B0B;}
	.st16{fill:#8BFF78;}
	.st17{fill:#FF7E27;}
	.st18{fill:#FFFFFF;}
</style>
<g id="dunkelblau">
	<path class="st0" d="M28.26,8.03c-0.02,0-0.04,0-0.06,0V6.98c0-0.02,0-0.04,0-0.06h0c0-0.01,0-0.01,0-0.02
		c-0.02-0.43-0.15-0.83-0.37-1.17c-2.3-5.12-12.24-4.74-12.24-4.74C0.86,0.66,2.22,6.92,2.22,6.92h0c0,0.02,0,0.04,0,0.06v1.15
		C2.07,8.08,1.91,8.05,1.74,8.05C0.95,8.05,0.3,8.7,0.3,9.49v4.01c0,0.79,0.65,1.44,1.44,1.44c0.17,0,0.33-0.03,0.48-0.08v8.5
		c0,1.1,0.78,2.03,1.81,2.26v1.08c0,1.28,1.05,2.32,2.32,2.32h1.03c1.28,0,2.32-1.05,2.32-2.32v-1.02H20.6v1.02
		c0,1.28,1.05,2.32,2.32,2.32h1.03c1.28,0,2.32-1.05,2.32-2.32v-1.05c1.09-0.19,1.93-1.15,1.93-2.29v-8.44c0.02,0,0.04,0,0.06,0
		c0.79,0,1.44-0.65,1.44-1.44V9.47C29.7,8.68,29.05,8.03,28.26,8.03z M6.73,23.61c-1.06,0-1.93-0.86-1.93-1.93s0.86-1.93,1.93-1.93
		c1.06,0,1.93,0.86,1.93,1.93S7.8,23.61,6.73,23.61z M7.94,17.79c-1.28,0-2.32-1.05-2.32-2.32V9.53c0-1.28,1.05-2.32,2.32-2.32
		h14.12c1.28,0,2.32,1.05,2.32,2.32v5.93c0,1.28-1.05,2.32-2.32,2.32H7.94z M23.78,23.61c-1.06,0-1.93-0.86-1.93-1.93
		s0.86-1.93,1.93-1.93c1.06,0,1.93,0.86,1.93,1.93S24.85,23.61,23.78,23.61z"/>
</g>
<g id="Farben">
</g>
<g id="Hilfslinien">
</g>
</svg>
