<?xml version="1.0" encoding="utf-8"?>
<!-- Generator: Adobe Illustrator 27.1.1, SVG Export Plug-In . SVG Version: 6.00 Build 0)  -->
<svg version="1.1" xmlns="http://www.w3.org/2000/svg" xmlns:xlink="http://www.w3.org/1999/xlink" x="0px" y="0px"
	 viewBox="0 0 30 30" style="enable-background:new 0 0 30 30;" xml:space="preserve">
<style type="text/css">
	.st0{fill:#020076;}
	.st1{fill:none;stroke:#020076;stroke-width:2;stroke-miterlimit:10;}
	.st2{fill:none;stroke:#020076;stroke-width:2;stroke-linecap:round;stroke-miterlimit:10;}
	.st3{fill:none;stroke:#020076;stroke-width:3;stroke-miterlimit:10;}
	.st4{fill:none;stroke:#020076;stroke-width:1.5;stroke-miterlimit:10;}
	.st5{fill:none;stroke:#020076;stroke-miterlimit:10;}
	.st6{fill:#020076;fill-opacity:0.6;}
	.st7{fill:#020076;fill-opacity:0.2;}
	.st8{fill:#020076;fill-opacity:0.3;}
	.st9{fill:#020076;fill-opacity:0.5;}
	.st10{fill:#020076;fill-opacity:0.1;}
	.st11{fill:#020076;fill-opacity:0.7;}
	.st12{fill:#020076;fill-opacity:0.8;}
	.st13{fill:#020076;fill-opacity:0.4;}
	.st14{fill:none;stroke:#020076;}
	.st15{fill:#FE0B0B;}
	.st16{fill:#8BFF78;}
	.st17{fill:#FF7E27;}
	.st18{fill:#FFFFFF;}
</style>
<g id="dunkelblau">
	<g id="_x34__00000134243199871403041680000004061447056931469758_">
		<g>
			<path class="st0" d="M27.97,4.31l-2.55-2.55c-0.7-0.7-1.85-0.7-2.55,0l-3.83,5.09c-0.58,0.86-0.7,1.84,0,2.55l1.56,1.56
				c-1.16,1.55-2.55,3.25-4.12,4.81c-1.77,1.77-3.74,3.37-5.51,4.69l-1.51-1.51c-0.71-0.7-1.69-0.58-2.55,0L1.8,22.77
				c-0.86,0.59-0.71,1.84,0,2.55l2.55,2.55c1.41,1.41,3.24,0.96,5.11,0c0,0,5.64-3.16,10.46-7.97c4.54-4.53,8.05-10.49,8.05-10.49
				C28.7,7.4,29.38,5.72,27.97,4.31z"/>
		</g>
	</g>
</g>
<g id="Farben">
</g>
<g id="Hilfslinien">
</g>
</svg>
