<?xml version="1.0" encoding="utf-8"?>
<!-- Generator: Adobe Illustrator 27.1.1, SVG Export Plug-In . SVG Version: 6.00 Build 0)  -->
<svg version="1.1" xmlns="http://www.w3.org/2000/svg" xmlns:xlink="http://www.w3.org/1999/xlink" x="0px" y="0px"
	 viewBox="0 0 27.28 27.29" style="enable-background:new 0 0 27.28 27.29;" xml:space="preserve">
<style type="text/css">
	.st0{fill:#020076;}
	.st1{fill:none;stroke:#020076;stroke-width:2;stroke-miterlimit:10;}
	.st2{fill:none;stroke:#020076;stroke-width:2;stroke-linecap:round;stroke-miterlimit:10;}
	.st3{fill:none;stroke:#020076;stroke-width:3;stroke-miterlimit:10;}
	.st4{fill:none;stroke:#020076;stroke-width:1.5;stroke-miterlimit:10;}
	.st5{fill:none;stroke:#020076;stroke-miterlimit:10;}
	.st6{fill:#020076;fill-opacity:0.6;}
	.st7{fill:#020076;fill-opacity:0.2;}
	.st8{fill:#020076;fill-opacity:0.3;}
	.st9{fill:#020076;fill-opacity:0.5;}
	.st10{fill:#020076;fill-opacity:0.1;}
	.st11{fill:#020076;fill-opacity:0.7;}
	.st12{fill:#020076;fill-opacity:0.8;}
	.st13{fill:#020076;fill-opacity:0.4;}
	.st14{fill:none;stroke:#020076;}
	.st15{fill:#FE0B0B;}
	.st16{fill:#8BFF78;}
	.st17{fill:#FF7E27;}
	.st18{fill:#FFFFFF;}
</style>
<g id="dunkelblau">
	<g id="_x31__00000117635675921682593520000007122626583370340019_">
		<g>
			<path class="st0" d="M26.38,16.86l-2.11-1.23c0.12-0.65,0.2-1.3,0.2-1.99c0-0.68-0.08-1.34-0.2-1.99l2.11-1.23
				c0.86-0.5,1.16-1.61,0.66-2.48l-1.8-3.15c-0.5-0.87-1.6-1.17-2.46-0.67l-2.13,1.24c-1-0.86-2.13-1.55-3.39-2V1.82
				c0-1-0.81-1.82-1.8-1.82h-3.61c-1,0-1.8,0.81-1.8,1.82v1.54c-1.26,0.45-2.39,1.15-3.39,2L4.51,4.13c-0.86-0.5-1.97-0.2-2.46,0.67
				l-1.8,3.15c-0.5,0.87-0.2,1.98,0.66,2.48l2.11,1.23c-0.12,0.65-0.2,1.31-0.2,1.99c0,0.68,0.08,1.34,0.2,1.99L0.9,16.86
				c-0.86,0.5-1.16,1.61-0.66,2.48l1.8,3.15c0.5,0.87,1.6,1.17,2.46,0.67l2.13-1.24c1,0.86,2.13,1.56,3.39,2v1.54
				c0,1,0.81,1.82,1.8,1.82h3.61c1,0,1.8-0.81,1.8-1.82v-1.54c1.26-0.45,2.39-1.15,3.39-2l2.13,1.24c0.86,0.5,1.97,0.2,2.46-0.67
				l1.8-3.15C27.54,18.47,27.24,17.36,26.38,16.86z M13.64,18.19c-2.49,0-4.51-2.04-4.51-4.55s2.02-4.55,4.51-4.55
				c2.49,0,4.51,2.04,4.51,4.55S16.13,18.19,13.64,18.19z"/>
		</g>
	</g>
</g>
<g id="Farben">
</g>
<g id="Hilfslinien">
</g>
</svg>
