<?xml version="1.0" encoding="utf-8"?>
<!-- Generator: Adobe Illustrator 27.1.1, SVG Export Plug-In . SVG Version: 6.00 Build 0)  -->
<svg version="1.1" xmlns="http://www.w3.org/2000/svg" xmlns:xlink="http://www.w3.org/1999/xlink" x="0px" y="0px"
	 viewBox="0 0 30 30" style="enable-background:new 0 0 30 30;" xml:space="preserve">
<style type="text/css">
	.st0{fill:#020076;}
	.st1{fill:none;stroke:#020076;stroke-width:2;stroke-miterlimit:10;}
	.st2{fill:none;stroke:#020076;stroke-width:2;stroke-linecap:round;stroke-miterlimit:10;}
	.st3{fill:none;stroke:#020076;stroke-width:3;stroke-miterlimit:10;}
	.st4{fill:none;stroke:#020076;stroke-width:1.5;stroke-miterlimit:10;}
	.st5{fill:none;stroke:#020076;stroke-miterlimit:10;}
	.st6{fill:#020076;fill-opacity:0.6;}
	.st7{fill:#020076;fill-opacity:0.2;}
	.st8{fill:#020076;fill-opacity:0.3;}
	.st9{fill:#020076;fill-opacity:0.5;}
	.st10{fill:#020076;fill-opacity:0.1;}
	.st11{fill:#020076;fill-opacity:0.7;}
	.st12{fill:#020076;fill-opacity:0.8;}
	.st13{fill:#020076;fill-opacity:0.4;}
	.st14{fill:none;stroke:#020076;}
	.st15{fill:#FE0B0B;}
	.st16{fill:#8BFF78;}
	.st17{fill:#FF7E27;}
	.st18{fill:#FFFFFF;}
</style>
<g id="dunkelblau">
	<g>
		<path class="st0" d="M21.68,9.81c0.74-0.94,1.17-2.06,1.17-3.26c0-3.34-3.32-6.04-7.41-6.04S8.03,3.21,8.03,6.55
			c0,0.44,0.06,0.87,0.17,1.29c-3.14,0.7-5.46,3.04-5.46,5.83c0,3.34,3.32,6.04,7.41,6.04c0.93,0,1.81-0.14,2.63-0.39
			c1.5,1.55,3.94,2.57,6.7,2.57c4.55,0,8.24-2.75,8.24-6.15C27.73,12.91,25.17,10.53,21.68,9.81z"/>
		<path class="st0" d="M15.96,29.49h-1.41c-0.89,0-1.61-0.72-1.61-1.61V14.56c0-0.89,0.72-1.61,1.61-1.61h1.41
			c0.89,0,1.61,0.72,1.61,1.61v13.33C17.57,28.77,16.85,29.49,15.96,29.49z"/>
	</g>
</g>
<g id="Farben">
</g>
<g id="Hilfslinien">
</g>
</svg>
