<?xml version="1.0" encoding="utf-8"?>
<!-- Generator: Adobe Illustrator 27.1.1, SVG Export Plug-In . SVG Version: 6.00 Build 0)  -->
<svg version="1.1" xmlns="http://www.w3.org/2000/svg" xmlns:xlink="http://www.w3.org/1999/xlink" x="0px" y="0px"
	 viewBox="0 0 29.86 29.86" style="enable-background:new 0 0 29.86 29.86;" xml:space="preserve">
<style type="text/css">
	.st0{fill:#020076;}
	.st1{fill:none;stroke:#020076;stroke-width:2;stroke-miterlimit:10;}
	.st2{fill:none;stroke:#020076;stroke-width:2;stroke-linecap:round;stroke-miterlimit:10;}
	.st3{fill:none;stroke:#020076;stroke-width:3;stroke-miterlimit:10;}
	.st4{fill:none;stroke:#020076;stroke-width:1.5;stroke-miterlimit:10;}
	.st5{fill:none;stroke:#020076;stroke-miterlimit:10;}
	.st6{fill:#020076;fill-opacity:0.6;}
	.st7{fill:#020076;fill-opacity:0.2;}
	.st8{fill:#020076;fill-opacity:0.3;}
	.st9{fill:#020076;fill-opacity:0.5;}
	.st10{fill:#020076;fill-opacity:0.1;}
	.st11{fill:#020076;fill-opacity:0.7;}
	.st12{fill:#020076;fill-opacity:0.8;}
	.st13{fill:#020076;fill-opacity:0.4;}
	.st14{fill:none;stroke:#020076;}
	.st15{fill:#FE0B0B;}
	.st16{fill:#8BFF78;}
	.st17{fill:#FF7E27;}
	.st18{fill:#FFFFFF;}
</style>
<g id="dunkelblau">
	<path class="st0" d="M3.01,4.57C2.07,4.57,1.3,5.35,1.3,6.3c0,0.72,1.42,2.88,1.71,2.88c0.28,0,1.71-2.16,1.71-2.88
		C4.72,5.35,3.95,4.57,3.01,4.57z"/>
	<path class="st0" d="M3.01,12.46c-0.94,0-1.71,0.77-1.71,1.73c0,0.72,1.42,2.88,1.71,2.88c0.28,0,1.71-2.16,1.71-2.88
		C4.72,13.24,3.95,12.46,3.01,12.46z"/>
	<path class="st0" d="M3.01,20.68c-0.94,0-1.71,0.77-1.71,1.73c0,0.72,1.42,2.88,1.71,2.88c0.28,0,1.71-2.16,1.71-2.88
		C4.72,21.46,3.95,20.68,3.01,20.68z"/>
	<path class="st0" d="M7.94,4.57h19.25c0.67,0,1.22,0.55,1.22,1.22v2.17c0,0.67-0.55,1.22-1.22,1.22H7.94
		c-0.67,0-1.22-0.55-1.22-1.22V5.79C6.73,5.12,7.27,4.57,7.94,4.57z"/>
	<path class="st0" d="M7.94,12.46h19.25c0.67,0,1.22,0.55,1.22,1.22v2.17c0,0.67-0.55,1.22-1.22,1.22H7.94
		c-0.67,0-1.22-0.55-1.22-1.22v-2.17C6.73,13.01,7.27,12.46,7.94,12.46z"/>
	<path class="st0" d="M7.94,20.35h19.25c0.67,0,1.22,0.55,1.22,1.22v2.49c0,0.67-0.55,1.22-1.22,1.22H7.94
		c-0.67,0-1.22-0.55-1.22-1.22v-2.49C6.73,20.9,7.27,20.35,7.94,20.35z"/>
</g>
<g id="Farben">
</g>
<g id="Hilfslinien">
</g>
</svg>
