<?xml version="1.0" encoding="utf-8"?>
<!-- Generator: Adobe Illustrator 27.1.1, SVG Export Plug-In . SVG Version: 6.00 Build 0)  -->
<svg version="1.1" xmlns="http://www.w3.org/2000/svg" xmlns:xlink="http://www.w3.org/1999/xlink" x="0px" y="0px"
	 viewBox="0 0 30 30" style="enable-background:new 0 0 30 30;" xml:space="preserve">
<style type="text/css">
	.st0{fill:#020076;}
	.st1{fill:none;stroke:#020076;stroke-width:2;stroke-miterlimit:10;}
	.st2{fill:none;stroke:#020076;stroke-width:2;stroke-linecap:round;stroke-miterlimit:10;}
	.st3{fill:none;stroke:#020076;stroke-width:3;stroke-miterlimit:10;}
	.st4{fill:none;stroke:#020076;stroke-width:1.5;stroke-miterlimit:10;}
	.st5{fill:none;stroke:#020076;stroke-miterlimit:10;}
	.st6{fill:#020076;fill-opacity:0.6;}
	.st7{fill:#020076;fill-opacity:0.2;}
	.st8{fill:#020076;fill-opacity:0.3;}
	.st9{fill:#020076;fill-opacity:0.5;}
	.st10{fill:#020076;fill-opacity:0.1;}
	.st11{fill:#020076;fill-opacity:0.7;}
	.st12{fill:#020076;fill-opacity:0.8;}
	.st13{fill:#020076;fill-opacity:0.4;}
	.st14{fill:none;stroke:#020076;}
	.st15{fill:#FE0B0B;}
	.st16{fill:#8BFF78;}
	.st17{fill:#FF7E27;}
	.st18{fill:#FFFFFF;}
</style>
<g id="dunkelblau">
	<g>
		<g>
			<path class="st5" d="M15,9.7c-1.71,1.24-3.39,2.35-5.06,3.58c-0.08,0.06-0.12,0.25-0.09,0.35c0.6,1.89,1.22,3.78,1.83,5.67
				c0.06,0.19,0.14,0.26,0.35,0.26c1.99-0.01,3.98-0.01,5.96,0c0.18,0,0.28-0.04,0.33-0.22c0.61-1.91,1.24-3.82,1.85-5.73
				c0.03-0.09-0.02-0.26-0.09-0.31C18.4,12.05,16.71,10.94,15,9.7z"/>
			<path class="st5" d="M19.45,2.4l-3.76,1.42c-0.44,0.17-0.93,0.17-1.37,0L10.57,2.4"/>
			<path class="st5" d="M28.52,15.39L26,12.26c-0.29-0.37-0.45-0.83-0.42-1.3l0.18-4"/>
			<path class="st5" d="M1.49,15.29l2.52-3.14c0.29-0.37,0.45-0.83,0.42-1.3l-0.18-4"/>
			<path class="st5" d="M11.2,27.8L9,24.43c-0.26-0.39-0.65-0.68-1.1-0.81l-3.86-1.07"/>
			<path class="st5" d="M18.77,27.85l2.2-3.37c0.26-0.39,0.65-0.68,1.1-0.81l3.86-1.07"/>
			<line class="st5" x1="15" y1="4.33" x2="15" y2="9.81"/>
			<line class="st5" x1="9.76" y1="13.23" x2="4.55" y2="11.54"/>
			<line class="st5" x1="20.27" y1="13.39" x2="25.48" y2="11.71"/>
			<line class="st5" x1="18.23" y1="19.49" x2="21.4" y2="23.96"/>
			<line class="st5" x1="11.73" y1="19.5" x2="8.52" y2="23.94"/>
		</g>
		<circle class="st5" cx="15.01" cy="15" r="13.34"/>
	</g>
</g>
<g id="Farben">
</g>
<g id="Hilfslinien">
</g>
</svg>
