<?xml version="1.0" encoding="utf-8"?>
<!-- Generator: Adobe Illustrator 27.1.1, SVG Export Plug-In . SVG Version: 6.00 Build 0)  -->
<svg version="1.1" xmlns="http://www.w3.org/2000/svg" xmlns:xlink="http://www.w3.org/1999/xlink" x="0px" y="0px"
	 viewBox="0 0 30 30" style="enable-background:new 0 0 30 30;" xml:space="preserve">
<style type="text/css">
	.st0{fill:#020076;}
	.st1{fill:none;stroke:#020076;stroke-width:2;stroke-miterlimit:10;}
	.st2{fill:none;stroke:#020076;stroke-width:2;stroke-linecap:round;stroke-miterlimit:10;}
	.st3{fill:none;stroke:#020076;stroke-width:3;stroke-miterlimit:10;}
	.st4{fill:none;stroke:#020076;stroke-width:1.5;stroke-miterlimit:10;}
	.st5{fill:none;stroke:#020076;stroke-miterlimit:10;}
	.st6{fill:#020076;fill-opacity:0.6;}
	.st7{fill:#020076;fill-opacity:0.2;}
	.st8{fill:#020076;fill-opacity:0.3;}
	.st9{fill:#020076;fill-opacity:0.5;}
	.st10{fill:#020076;fill-opacity:0.1;}
	.st11{fill:#020076;fill-opacity:0.7;}
	.st12{fill:#020076;fill-opacity:0.8;}
	.st13{fill:#020076;fill-opacity:0.4;}
	.st14{fill:none;stroke:#020076;}
	.st15{fill:#FE0B0B;}
	.st16{fill:#8BFF78;}
	.st17{fill:#FF7E27;}
	.st18{fill:#FFFFFF;}
</style>
<g id="dunkelblau">
</g>
<g id="Farben">
	<path class="st15" d="M15.03,0C6.82,0,0.16,6.65,0.16,14.86c0,8.21,6.65,14.86,14.86,14.86s14.86-6.65,14.86-14.86
		C29.89,6.65,23.24,0,15.03,0z M20.36,7.83c1.15,0,2.09,0.94,2.09,2.09c0,1.15-0.94,2.09-2.09,2.09c-1.15,0-2.09-0.94-2.09-2.09
		C18.27,8.76,19.21,7.83,20.36,7.83z M9.56,7.83c1.15,0,2.09,0.94,2.09,2.09c0,1.15-0.94,2.09-2.09,2.09s-2.09-0.94-2.09-2.09
		C7.48,8.76,8.41,7.83,9.56,7.83z M16.12,19.01c-0.74-0.16-1.5-0.16-2.24,0c-1.91,0.41-5.73,1.67-8.61,5.38c0,0,2.24-6.59,9.62-7.08
		c0.02,0,0.18,0,0.23,0c7.38,0.48,9.62,7.08,9.62,7.08C21.84,20.68,18.03,19.42,16.12,19.01z"/>
</g>
<g id="Hilfslinien">
</g>
</svg>
