<?xml version="1.0" encoding="utf-8"?>
<!-- Generator: Adobe Illustrator 27.1.1, SVG Export Plug-In . SVG Version: 6.00 Build 0)  -->
<svg version="1.1" xmlns="http://www.w3.org/2000/svg" xmlns:xlink="http://www.w3.org/1999/xlink" x="0px" y="0px"
	 viewBox="0 0 29.86 29.86" style="enable-background:new 0 0 29.86 29.86;" xml:space="preserve">
<style type="text/css">
	.st0{fill:#020076;}
	.st1{fill:none;stroke:#020076;stroke-width:2;stroke-miterlimit:10;}
	.st2{fill:none;stroke:#020076;stroke-width:2;stroke-linecap:round;stroke-miterlimit:10;}
	.st3{fill:none;stroke:#020076;stroke-width:3;stroke-miterlimit:10;}
	.st4{fill:none;stroke:#020076;stroke-width:1.5;stroke-miterlimit:10;}
	.st5{fill:none;stroke:#020076;stroke-miterlimit:10;}
	.st6{fill:#020076;fill-opacity:0.6;}
	.st7{fill:#020076;fill-opacity:0.2;}
	.st8{fill:#020076;fill-opacity:0.3;}
	.st9{fill:#020076;fill-opacity:0.5;}
	.st10{fill:#020076;fill-opacity:0.1;}
	.st11{fill:#020076;fill-opacity:0.7;}
	.st12{fill:#020076;fill-opacity:0.8;}
	.st13{fill:#020076;fill-opacity:0.4;}
	.st14{fill:none;stroke:#020076;}
	.st15{fill:#FE0B0B;}
	.st16{fill:#8BFF78;}
	.st17{fill:#FF7E27;}
	.st18{fill:#FFFFFF;}
</style>
<g id="dunkelblau">
	<path class="st6" d="M13.55,1.1h1.48c0.27,0,0.49,0.22,0.49,0.49v7c0,0.27-0.22,0.49-0.49,0.49h-1.48c-0.27,0-0.49-0.22-0.49-0.49
		v-7C13.06,1.32,13.28,1.1,13.55,1.1z"/>
	<path class="st7" d="M13.55,20.74h1.48c0.27,0,0.49,0.22,0.49,0.49v7c0,0.27-0.22,0.49-0.49,0.49h-1.48
		c-0.27,0-0.49-0.22-0.49-0.49v-7C13.06,20.96,13.28,20.74,13.55,20.74z"/>
	<path class="st8" d="M10.06,18.34l1.2,1.2c0.19,0.19,0.19,0.5,0,0.69l-5,5c-0.19,0.19-0.5,0.19-0.69,0l-1.2-1.2
		c-0.19-0.19-0.19-0.5,0-0.69l5-5C9.56,18.15,9.87,18.15,10.06,18.34z"/>
	<path class="st9" d="M10.73,10.64l-1.2,1.2c-0.19,0.19-0.5,0.19-0.69,0l-5-5c-0.19-0.19-0.19-0.5,0-0.69l1.2-1.2
		c0.19-0.19,0.5-0.19,0.69,0l5,5C10.92,10.14,10.92,10.45,10.73,10.64z"/>
	<path class="st10" d="M22.34,21.18l-1.2,1.2c-0.19,0.19-0.5,0.19-0.69,0l-2.15-2.15c-0.19-0.19-0.19-0.5,0-0.69l1.2-1.2
		c0.19-0.19,0.5-0.19,0.69,0l2.15,2.15C22.53,20.68,22.53,20.99,22.34,21.18z"/>
	<path class="st11" d="M19.5,11.84l-1.2-1.2c-0.19-0.19-0.19-0.5,0-0.69l5-5c0.19-0.19,0.5-0.19,0.69,0l1.2,1.2
		c0.19,0.19,0.19,0.5,0,0.69l-5,5C20,12.03,19.69,12.03,19.5,11.84z"/>
	<path class="st12" d="M20.42,15.95v-1.48c0-0.27,0.22-0.49,0.49-0.49h7c0.27,0,0.49,0.22,0.49,0.49v1.48
		c0,0.27-0.22,0.49-0.49,0.49h-7C20.64,16.44,20.42,16.22,20.42,15.95z"/>
	<path class="st13" d="M0.79,15.95v-1.48c0-0.27,0.22-0.49,0.49-0.49h7c0.27,0,0.49,0.22,0.49,0.49v1.48c0,0.27-0.22,0.49-0.49,0.49
		h-7C1.01,16.44,0.79,16.22,0.79,15.95z"/>
</g>
<g id="Farben">
</g>
<g id="Hilfslinien">
</g>
</svg>
