<svg width="18" height="30" viewBox="0 0 18 30" fill="none" xmlns="http://www.w3.org/2000/svg">
<g id="Group">
<g id="Group_2">
<g id="Group_3">
<path id="Vector" d="M5.20158 20.1328L7.50159 22.5106L5.51392 28.0587C5.28676 28.6752 4.71886 29.0568 4.12256 29.0568C3.95218 29.0568 3.78181 29.0274 3.61144 28.9687C2.84477 28.6752 2.44724 27.7945 2.73119 27.0019L5.20158 20.1328Z" fill="#0D0D0D"/>
<path id="Vector_2" d="M0.91394 14.0587L2.27691 11.358C2.64605 10.6535 3.18556 10.0664 3.83865 9.65544C6.99052 7.71799 7.38805 7.74735 7.78559 7.7767L9.91523 7.92348C10.5683 7.95283 11.0226 8.12897 13.2091 11.4461C13.2943 11.5635 13.4078 11.6516 13.5782 11.6809L16.1906 12.0919C16.9005 12.2093 17.3832 12.8845 17.2696 13.6184C17.156 14.3523 16.5029 14.8513 15.793 14.7339L13.1807 14.3229C12.3288 14.1761 11.5622 13.7064 11.0794 12.9726C10.9659 12.7964 10.8807 12.6497 10.7671 12.5029L9.09177 17.9923L11.4202 20.3994C11.7609 20.7517 12.0449 21.2214 12.2152 21.6911L14.0041 27.0924C14.2881 27.885 13.8622 28.7657 13.0955 29.0299C12.9251 29.0886 12.7832 29.1179 12.6128 29.1179C11.9881 29.1179 11.4202 28.7069 11.193 28.0905L9.40412 22.6891C9.37572 22.6304 9.34733 22.6011 9.31893 22.5424L5.17323 18.2271C4.57693 17.6107 4.34976 16.7594 4.52014 15.9374L5.42878 11.769C5.3436 11.8277 5.25841 11.8864 5.14483 11.9451C4.88927 12.0919 4.69051 12.3268 4.54853 12.591L3.18556 15.2916C2.9584 15.732 2.50407 15.9962 2.04975 15.9962C1.85098 15.9962 1.65222 15.9374 1.45345 15.8494C0.828754 15.4971 0.601592 14.7045 0.91394 14.0587Z" fill="#0D0D0D"/>
<path id="Vector_3" d="M12.1383 4.47156C12.3097 2.84377 11.1722 1.38055 9.59759 1.20338C8.02303 1.02621 6.60766 2.20217 6.43629 3.82996C6.26491 5.45776 7.40241 6.92097 8.97698 7.09814C10.5515 7.27532 11.9669 6.09935 12.1383 4.47156Z" fill="#0D0D0D"/>
</g>
</g>
</g>
</svg>
