<svg width="29" height="29" viewBox="0 0 29 29" fill="none" xmlns="http://www.w3.org/2000/svg">
<g id="Icon/Solid/pause">
<path id="Icon" fill-rule="evenodd" clip-rule="evenodd" d="M26.0824 14.8836C26.0824 21.0692 21.068 26.0836 14.8824 26.0836C8.69678 26.0836 3.68237 21.0692 3.68237 14.8836C3.68237 8.69801 8.69678 3.68359 14.8824 3.68359C21.068 3.68359 26.0824 8.69801 26.0824 14.8836ZM10.6824 12.0836C10.6824 11.3104 11.3092 10.6836 12.0824 10.6836C12.8556 10.6836 13.4824 11.3104 13.4824 12.0836V17.6836C13.4824 18.4568 12.8556 19.0836 12.0824 19.0836C11.3092 19.0836 10.6824 18.4568 10.6824 17.6836V12.0836ZM17.6824 10.6836C16.9092 10.6836 16.2824 11.3104 16.2824 12.0836V17.6836C16.2824 18.4568 16.9092 19.0836 17.6824 19.0836C18.4556 19.0836 19.0824 18.4568 19.0824 17.6836V12.0836C19.0824 11.3104 18.4556 10.6836 17.6824 10.6836Z" fill="#0F172A"/>
</g>
</svg>
