<svg width="30" height="30" viewBox="0 0 30 30" fill="none" xmlns="http://www.w3.org/2000/svg">
<g id="Icon/Solid/map">
<g id="Icon">
<path fill-rule="evenodd" clip-rule="evenodd" d="M17.8335 3.12109L12.1864 8.76815V26.8789L17.8335 21.2318V3.12109Z" fill="#0F172A"/>
<path fill-rule="evenodd" clip-rule="evenodd" d="M6.12585 5.53113C5.72209 5.12737 5.11487 5.00658 4.58733 5.2251C4.05979 5.44361 3.71582 5.95839 3.71582 6.5294V20.647C3.71582 21.0215 3.86456 21.3806 4.12932 21.6453L9.36288 26.8789V8.76815L6.12585 5.53113Z" fill="#0F172A"/>
<path fill-rule="evenodd" clip-rule="evenodd" d="M25.8906 8.35466L20.657 3.12109V21.2318L23.894 24.4688C24.2978 24.8726 24.905 24.9934 25.4325 24.7749C25.9601 24.5564 26.3041 24.0416 26.3041 23.4706V9.35292C26.3041 8.9785 26.1553 8.61941 25.8906 8.35466Z" fill="#0F172A"/>
</g>
</g>
</svg>
