<svg width="33" height="33" viewBox="0 0 33 33" fill="none" xmlns="http://www.w3.org/2000/svg">
<circle cx="16.2" cy="16.5" r="14.72" stroke="black" stroke-opacity="0.1" stroke-width="2.56"/>
<path d="M1.47995 16.5C1.47995 12.596 3.0308 8.85192 5.79134 6.09139C8.55188 3.33085 12.296 1.78 16.2 1.78C20.1039 1.78 23.848 3.33085 26.6086 6.09139C29.3691 8.85192 30.92 12.596 30.92 16.5C30.92 20.404 29.3691 24.1481 26.6086 26.9086C23.848 29.6691 20.1039 31.22 16.2 31.22C12.296 31.22 8.55187 29.6691 5.79134 26.9086C3.0308 24.1481 1.47995 20.404 1.47995 16.5L1.47995 16.5Z" stroke="#1EA939" stroke-width="2.56" stroke-linecap="round"/>
<path d="M8.71055 13.9145V19.5H7.52964V15.0355H7.49691L6.21782 15.8373V14.79L7.60055 13.9145H8.71055ZM12.1653 19.6227C11.6962 19.6209 11.2926 19.5055 10.9544 19.2764C10.618 19.0473 10.3589 18.7155 10.1771 18.2809C9.99712 17.8464 9.90803 17.3236 9.90985 16.7127C9.90985 16.1036 9.99985 15.5845 10.1798 15.1555C10.3617 14.7264 10.6208 14.4 10.9571 14.1764C11.2953 13.9509 11.698 13.8382 12.1653 13.8382C12.6326 13.8382 13.0344 13.9509 13.3708 14.1764C13.7089 14.4018 13.9689 14.7291 14.1508 15.1582C14.3326 15.5855 14.4226 16.1036 14.4208 16.7127C14.4208 17.3255 14.3298 17.8491 14.148 18.2836C13.968 18.7182 13.7098 19.05 13.3735 19.2791C13.0371 19.5082 12.6344 19.6227 12.1653 19.6227ZM12.1653 18.6436C12.4853 18.6436 12.7408 18.4827 12.9317 18.1609C13.1226 17.8391 13.2171 17.3564 13.2153 16.7127C13.2153 16.2891 13.1717 15.9364 13.0844 15.6545C12.9989 15.3727 12.8771 15.1609 12.7189 15.0191C12.5626 14.8773 12.378 14.8064 12.1653 14.8064C11.8471 14.8064 11.5926 14.9655 11.4017 15.2836C11.2108 15.6018 11.1144 16.0782 11.1126 16.7127C11.1126 17.1418 11.1553 17.5 11.2408 17.7873C11.328 18.0727 11.4508 18.2873 11.6089 18.4309C11.7671 18.5727 11.9526 18.6436 12.1653 18.6436ZM17.3901 19.6227C16.921 19.6209 16.5173 19.5055 16.1791 19.2764C15.8428 19.0473 15.5837 18.7155 15.4019 18.2809C15.2219 17.8464 15.1328 17.3236 15.1346 16.7127C15.1346 16.1036 15.2246 15.5845 15.4046 15.1555C15.5864 14.7264 15.8455 14.4 16.1819 14.1764C16.5201 13.9509 16.9228 13.8382 17.3901 13.8382C17.8573 13.8382 18.2591 13.9509 18.5955 14.1764C18.9337 14.4018 19.1937 14.7291 19.3755 15.1582C19.5573 15.5855 19.6473 16.1036 19.6455 16.7127C19.6455 17.3255 19.5546 17.8491 19.3728 18.2836C19.1928 18.7182 18.9346 19.05 18.5982 19.2791C18.2619 19.5082 17.8591 19.6227 17.3901 19.6227ZM17.3901 18.6436C17.7101 18.6436 17.9655 18.4827 18.1564 18.1609C18.3473 17.8391 18.4419 17.3564 18.4401 16.7127C18.4401 16.2891 18.3964 15.9364 18.3091 15.6545C18.2237 15.3727 18.1019 15.1609 17.9437 15.0191C17.7873 14.8773 17.6028 14.8064 17.3901 14.8064C17.0719 14.8064 16.8173 14.9655 16.6264 15.2836C16.4355 15.6018 16.3391 16.0782 16.3373 16.7127C16.3373 17.1418 16.3801 17.5 16.4655 17.7873C16.5528 18.0727 16.6755 18.2873 16.8337 18.4309C16.9919 18.5727 17.1773 18.6436 17.3901 18.6436ZM23.4821 18.4527V18.1582C23.4821 17.9345 23.5294 17.7291 23.6239 17.5418C23.7203 17.3527 23.8594 17.2018 24.0412 17.0891C24.2248 16.9745 24.4484 16.9173 24.7121 16.9173C24.9794 16.9173 25.2039 16.9736 25.3857 17.0864C25.5694 17.1991 25.7075 17.35 25.8003 17.5391C25.8948 17.7264 25.9421 17.9327 25.9421 18.1582V18.4527C25.9421 18.6764 25.8948 18.8827 25.8003 19.0718C25.7057 19.2591 25.5666 19.4091 25.383 19.5218C25.1994 19.6364 24.9757 19.6936 24.7121 19.6936C24.4448 19.6936 24.2203 19.6364 24.0384 19.5218C23.8566 19.4091 23.7184 19.2591 23.6239 19.0718C23.5294 18.8827 23.4821 18.6764 23.4821 18.4527ZM24.2757 18.1582V18.4527C24.2757 18.5818 24.3066 18.7036 24.3684 18.8182C24.4321 18.9327 24.5466 18.99 24.7121 18.99C24.8775 18.99 24.9903 18.9336 25.0503 18.8209C25.1121 18.7082 25.143 18.5855 25.143 18.4527V18.1582C25.143 18.0255 25.1139 17.9018 25.0557 17.7873C24.9975 17.6727 24.883 17.6155 24.7121 17.6155C24.5484 17.6155 24.4348 17.6727 24.3712 17.7873C24.3075 17.9018 24.2757 18.0255 24.2757 18.1582ZM20.6157 15.2564V14.9618C20.6157 14.7364 20.6639 14.53 20.7603 14.3427C20.8566 14.1536 20.9957 14.0027 21.1775 13.89C21.3612 13.7773 21.583 13.7209 21.843 13.7209C22.1121 13.7209 22.3375 13.7773 22.5194 13.89C22.7012 14.0027 22.8394 14.1536 22.9339 14.3427C23.0284 14.53 23.0757 14.7364 23.0757 14.9618V15.2564C23.0757 15.4818 23.0275 15.6882 22.9312 15.8755C22.8366 16.0627 22.6975 16.2127 22.5139 16.3255C22.3321 16.4364 22.1084 16.4918 21.843 16.4918C21.5775 16.4918 21.353 16.4355 21.1694 16.3227C20.9875 16.2082 20.8494 16.0582 20.7548 15.8727C20.6621 15.6855 20.6157 15.48 20.6157 15.2564ZM21.4148 14.9618V15.2564C21.4148 15.3891 21.4457 15.5118 21.5075 15.6245C21.5712 15.7373 21.683 15.7936 21.843 15.7936C22.0103 15.7936 22.1239 15.7373 22.1839 15.6245C22.2457 15.5118 22.2766 15.3891 22.2766 15.2564V14.9618C22.2766 14.8291 22.2475 14.7055 22.1894 14.5909C22.1312 14.4764 22.0157 14.4191 21.843 14.4191C21.6812 14.4191 21.5694 14.4773 21.5075 14.5936C21.4457 14.71 21.4148 14.8327 21.4148 14.9618ZM20.9757 19.5L24.8157 13.9145H25.5303L21.6903 19.5H20.9757Z" fill="#0D0D0D"/>
</svg>
