<svg width="32" height="33" viewBox="0 0 32 33" fill="none" xmlns="http://www.w3.org/2000/svg">
<circle cx="16" cy="16.5" r="14.72" stroke="black" stroke-opacity="0.1" stroke-width="2.56"/>
<path d="M12.7303 19.6227C12.2613 19.6209 11.8576 19.5055 11.5194 19.2764C11.1831 19.0473 10.924 18.7155 10.7422 18.2809C10.5622 17.8464 10.4731 17.3236 10.4749 16.7127C10.4749 16.1036 10.5649 15.5845 10.7449 15.1555C10.9267 14.7264 11.1858 14.4 11.5222 14.1764C11.8603 13.9509 12.2631 13.8382 12.7303 13.8382C13.1976 13.8382 13.5994 13.9509 13.9358 14.1764C14.274 14.4018 14.534 14.7291 14.7158 15.1582C14.8976 15.5855 14.9876 16.1036 14.9858 16.7127C14.9858 17.3255 14.8949 17.8491 14.7131 18.2836C14.5331 18.7182 14.2749 19.05 13.9385 19.2791C13.6022 19.5082 13.1994 19.6227 12.7303 19.6227ZM12.7303 18.6436C13.0503 18.6436 13.3058 18.4827 13.4967 18.1609C13.6876 17.8391 13.7822 17.3564 13.7803 16.7127C13.7803 16.2891 13.7367 15.9364 13.6494 15.6545C13.564 15.3727 13.4422 15.1609 13.284 15.0191C13.1276 14.8773 12.9431 14.8064 12.7303 14.8064C12.4122 14.8064 12.1576 14.9655 11.9667 15.2836C11.7758 15.6018 11.6794 16.0782 11.6776 16.7127C11.6776 17.1418 11.7203 17.5 11.8058 17.7873C11.8931 18.0727 12.0158 18.2873 12.174 18.4309C12.3322 18.5727 12.5176 18.6436 12.7303 18.6436ZM18.8224 18.4527V18.1582C18.8224 17.9345 18.8696 17.7291 18.9642 17.5418C19.0606 17.3527 19.1996 17.2018 19.3815 17.0891C19.5651 16.9745 19.7887 16.9173 20.0524 16.9173C20.3197 16.9173 20.5442 16.9736 20.726 17.0864C20.9096 17.1991 21.0478 17.35 21.1406 17.5391C21.2351 17.7264 21.2824 17.9327 21.2824 18.1582V18.4527C21.2824 18.6764 21.2351 18.8827 21.1406 19.0718C21.046 19.2591 20.9069 19.4091 20.7233 19.5218C20.5397 19.6364 20.316 19.6936 20.0524 19.6936C19.7851 19.6936 19.5606 19.6364 19.3787 19.5218C19.1969 19.4091 19.0587 19.2591 18.9642 19.0718C18.8696 18.8827 18.8224 18.6764 18.8224 18.4527ZM19.616 18.1582V18.4527C19.616 18.5818 19.6469 18.7036 19.7087 18.8182C19.7724 18.9327 19.8869 18.99 20.0524 18.99C20.2178 18.99 20.3306 18.9336 20.3906 18.8209C20.4524 18.7082 20.4833 18.5855 20.4833 18.4527V18.1582C20.4833 18.0255 20.4542 17.9018 20.396 17.7873C20.3378 17.6727 20.2233 17.6155 20.0524 17.6155C19.8887 17.6155 19.7751 17.6727 19.7115 17.7873C19.6478 17.9018 19.616 18.0255 19.616 18.1582ZM15.956 15.2564V14.9618C15.956 14.7364 16.0042 14.53 16.1006 14.3427C16.1969 14.1536 16.336 14.0027 16.5178 13.89C16.7015 13.7773 16.9233 13.7209 17.1833 13.7209C17.4524 13.7209 17.6778 13.7773 17.8596 13.89C18.0415 14.0027 18.1796 14.1536 18.2742 14.3427C18.3687 14.53 18.416 14.7364 18.416 14.9618V15.2564C18.416 15.4818 18.3678 15.6882 18.2715 15.8755C18.1769 16.0627 18.0378 16.2127 17.8542 16.3255C17.6724 16.4364 17.4487 16.4918 17.1833 16.4918C16.9178 16.4918 16.6933 16.4355 16.5096 16.3227C16.3278 16.2082 16.1896 16.0582 16.0951 15.8727C16.0024 15.6855 15.956 15.48 15.956 15.2564ZM16.7551 14.9618V15.2564C16.7551 15.3891 16.786 15.5118 16.8478 15.6245C16.9115 15.7373 17.0233 15.7936 17.1833 15.7936C17.3506 15.7936 17.4642 15.7373 17.5242 15.6245C17.586 15.5118 17.6169 15.3891 17.6169 15.2564V14.9618C17.6169 14.8291 17.5878 14.7055 17.5296 14.5909C17.4715 14.4764 17.356 14.4191 17.1833 14.4191C17.0215 14.4191 16.9096 14.4773 16.8478 14.5936C16.786 14.71 16.7551 14.8327 16.7551 14.9618ZM16.316 19.5L20.156 13.9145H20.8706L17.0306 19.5H16.316Z" fill="#0D0D0D"/>
</svg>
