<svg width="29" height="29" viewBox="0 0 29 29" fill="none" xmlns="http://www.w3.org/2000/svg">
<g id="Icon/Solid/sparkles">
<g id="Icon">
<path fill-rule="evenodd" clip-rule="evenodd" d="M7.89238 3.68359C8.66558 3.68359 9.29238 4.3104 9.29238 5.08359V6.48359H10.6924C11.4656 6.48359 12.0924 7.1104 12.0924 7.88359C12.0924 8.65679 11.4656 9.28359 10.6924 9.28359H9.29238V10.6836C9.29238 11.4568 8.66558 12.0836 7.89238 12.0836C7.11918 12.0836 6.49238 11.4568 6.49238 10.6836V9.28359H5.09238C4.31918 9.28359 3.69238 8.65679 3.69238 7.88359C3.69238 7.1104 4.31918 6.48359 5.09238 6.48359H6.49238V5.08359C6.49238 4.3104 7.11918 3.68359 7.89238 3.68359ZM7.89238 17.6836C8.66558 17.6836 9.29238 18.3104 9.29238 19.0836V20.4836H10.6924C11.4656 20.4836 12.0924 21.1104 12.0924 21.8836C12.0924 22.6568 11.4656 23.2836 10.6924 23.2836H9.29238V24.6836C9.29238 25.4568 8.66558 26.0836 7.89238 26.0836C7.11918 26.0836 6.49238 25.4568 6.49238 24.6836V23.2836H5.09238C4.31918 23.2836 3.69238 22.6568 3.69238 21.8836C3.69238 21.1104 4.31918 20.4836 5.09238 20.4836H6.49238V19.0836C6.49238 18.3104 7.11918 17.6836 7.89238 17.6836Z" fill="#0F172A"/>
<path fill-rule="evenodd" clip-rule="evenodd" d="M17.6923 3.68359C18.3275 3.68359 18.8831 4.11127 19.0457 4.72534L20.6966 10.9621L25.3919 13.6709C25.8253 13.921 26.0923 14.3833 26.0923 14.8836C26.0923 15.3839 25.8253 15.8462 25.3919 16.0963L20.6966 18.8051L19.0457 25.0418C18.8831 25.6559 18.3275 26.0836 17.6923 26.0836C17.0571 26.0836 16.5015 25.6559 16.3389 25.0418L14.688 18.8051L9.99276 16.0962C9.55939 15.8462 9.29238 15.3839 9.29238 14.8836C9.29238 14.3833 9.55939 13.921 9.99276 13.6709L14.688 10.9621L16.3389 4.72534C16.5015 4.11127 17.0571 3.68359 17.6923 3.68359Z" fill="#0F172A"/>
</g>
</g>
</svg>
