<svg width="30" height="30" viewBox="0 0 30 30" fill="none" xmlns="http://www.w3.org/2000/svg">
<g id="Icon/Solid/emoji-happy">
<path id="Icon" fill-rule="evenodd" clip-rule="evenodd" d="M15.0099 26.2953C21.2475 26.2953 26.3041 21.2387 26.3041 15.0011C26.3041 8.76358 21.2475 3.70703 15.0099 3.70703C8.77237 3.70703 3.71582 8.76358 3.71582 15.0011C3.71582 21.2387 8.77237 26.2953 15.0099 26.2953ZM10.7746 13.5894C11.5543 13.5894 12.1864 12.9573 12.1864 12.1776C12.1864 11.3979 11.5543 10.7659 10.7746 10.7659C9.99495 10.7659 9.36288 11.3979 9.36288 12.1776C9.36288 12.9573 9.99495 13.5894 10.7746 13.5894ZM20.657 12.1776C20.657 12.9573 20.0249 13.5894 19.2452 13.5894C18.4655 13.5894 17.8335 12.9573 17.8335 12.1776C17.8335 11.3979 18.4655 10.7659 19.2452 10.7659C20.0249 10.7659 20.657 11.3979 20.657 12.1776ZM20.0013 19.9924C20.5526 19.441 20.5526 18.5472 20.0013 17.9958C19.45 17.4445 18.5561 17.4445 18.0047 17.9958C16.3508 19.6498 13.6691 19.6498 12.0151 17.9958C11.4638 17.4445 10.5699 17.4445 10.0186 17.9958C9.46727 18.5472 9.46727 19.441 10.0186 19.9924C12.7752 22.749 17.2446 22.749 20.0013 19.9924Z" fill="#0F172A"/>
</g>
</svg>
