<svg width="23" height="23" viewBox="0 0 23 23" fill="none" xmlns="http://www.w3.org/2000/svg">
<g id="off-track-icon">
<path id="Vector" d="M2.17353 0.882812L0.882324 2.17401L4.23674 5.52842C3.60509 6.72753 3.24687 8.09178 3.24687 9.53874C3.24687 15.8126 10.979 22.1327 11.3082 22.3988L11.8822 22.8625L12.4559 22.3988C12.6245 22.2626 14.7336 20.537 16.7524 18.0444L21.5911 22.8831L22.8823 21.5919L2.17353 0.882812ZM11.8825 6.50185C13.2514 6.50185 14.361 7.61146 14.361 8.98041C14.361 9.43334 14.2374 9.85652 14.0255 10.222L18.836 15.0325C19.8196 13.3064 20.5178 11.4211 20.5178 9.53874C20.5178 4.77677 16.6436 0.902902 11.8822 0.902902C9.87247 0.902902 8.02268 1.59481 6.5538 2.75035L10.6406 6.83711C11.0063 6.62552 11.4295 6.50185 11.8825 6.50185Z" fill="black"/>
</g>
</svg>
