<svg width="33" height="33" viewBox="0 0 33 33" fill="none" xmlns="http://www.w3.org/2000/svg">
<circle cx="16.7598" cy="16.1602" r="16" fill="#3961E5"/>
<path d="M25.5649 11.8755C26.152 11.3221 26.2021 10.3724 25.6723 9.76666L25.2786 9.29554C24.7488 8.68233 23.8396 8.62998 23.2598 9.18337L14.4329 17.4692C13.8458 18.0226 12.9366 17.9702 12.414 17.357L10.4167 15.0463C9.88696 14.4331 8.97778 14.3807 8.39791 14.9341L7.95406 15.3529C7.36703 15.9063 7.31692 16.856 7.84668 17.4617L12.142 22.4497C12.6718 23.0629 13.1228 23.5415 13.1443 23.519C13.1729 23.4966 13.1944 23.4742 13.1944 23.4817C13.1944 23.4817 13.6812 23.033 14.261 22.4871L25.5649 11.8755Z" fill="white"/>
</svg>
