<?xml version="1.0" encoding="UTF-8" standalone="no"?>
<!DOCTYPE svg PUBLIC "-//W3C//DTD SVG 1.1//EN" "http://www.w3.org/Graphics/SVG/1.1/DTD/svg11.dtd">
<svg width="100%" height="100%" viewBox="0 0 327 64" version="1.1" xmlns="http://www.w3.org/2000/svg" xmlns:xlink="http://www.w3.org/1999/xlink" xml:space="preserve" xmlns:serif="http://www.serif.com/" style="fill-rule:evenodd;clip-rule:evenodd;stroke-linejoin:round;stroke-miterlimit:2;">
    <g transform="matrix(1,0,0,1,-20,-20)">
        <g>
            <path d="M347,30C347,24.481 342.519,20 337,20L30,20C24.481,20 20,24.481 20,30L20,74C20,79.519 24.481,84 30,84L337,84C342.519,84 347,79.519 347,74L347,30Z" style="fill:rgb(114,119,187);"/>
        </g>
        <g opacity="0.5">
            <path d="M347,30C347,24.481 342.519,20 337,20L193,20C187.481,20 183,24.481 183,30L183,74C183,79.519 187.481,84 193,84L337,84C342.519,84 347,79.519 347,74L347,30Z" style="fill:rgb(2,0,118);"/>
        </g>
        <path d="M71.262,40L54.739,40C53.226,40 52,41.226 52,42.739L52,59.262C52,60.774 53.226,62 54.739,62L71.262,62C72.774,62 74,60.774 74,59.262L74,42.739C74,41.226 72.774,40 71.262,40ZM82.113,42.16L75.833,46.491L75.833,55.509L82.113,59.834C83.327,60.671 85,59.817 85,58.356L85,43.638C85,42.183 83.333,41.323 82.113,42.16Z" style="fill:rgb(228,239,255);fill-rule:nonzero;"/>
        <path d="M105.492,59L100.352,45.5L102.212,44.78L106.612,56.92L111.032,44.84L112.752,45.5L107.632,59L105.492,59ZM114.545,59L114.545,48.6L116.345,48.6L116.345,59L114.545,59ZM115.445,46.82C115.099,46.82 114.799,46.693 114.545,46.44C114.305,46.187 114.185,45.893 114.185,45.56C114.185,45.173 114.299,44.867 114.525,44.64C114.752,44.413 115.059,44.3 115.445,44.3C115.792,44.3 116.085,44.427 116.325,44.68C116.579,44.92 116.705,45.213 116.705,45.56C116.705,45.933 116.592,46.24 116.365,46.48C116.139,46.707 115.832,46.82 115.445,46.82ZM123.485,59.24C122.632,59.24 121.852,59.02 121.145,58.58C120.439,58.14 119.879,57.52 119.465,56.72C119.052,55.907 118.845,54.953 118.845,53.86C118.845,52.807 119.052,51.867 119.465,51.04C119.892,50.213 120.452,49.56 121.145,49.08C121.852,48.6 122.625,48.36 123.465,48.36C124.159,48.36 124.752,48.5 125.245,48.78C125.752,49.06 126.145,49.347 126.425,49.64L126.425,44.2L128.225,44.2L128.225,56.48C128.225,56.987 128.345,57.32 128.585,57.48C128.839,57.627 129.112,57.7 129.405,57.7L129.025,59.1C127.759,59.1 126.985,58.593 126.705,57.58C126.412,57.993 125.999,58.373 125.465,58.72C124.945,59.067 124.285,59.24 123.485,59.24ZM123.885,57.64C124.379,57.64 124.845,57.527 125.285,57.3C125.739,57.06 126.119,56.753 126.425,56.38L126.425,51.22C126.172,50.9 125.819,50.607 125.365,50.34C124.912,50.06 124.412,49.92 123.865,49.92C123.225,49.92 122.665,50.093 122.185,50.44C121.705,50.787 121.332,51.253 121.065,51.84C120.812,52.413 120.685,53.067 120.685,53.8C120.685,54.533 120.825,55.193 121.105,55.78C121.385,56.353 121.765,56.807 122.245,57.14C122.739,57.473 123.285,57.64 123.885,57.64ZM135.776,59.24C134.282,59.24 133.096,58.767 132.216,57.82C131.349,56.86 130.916,55.52 130.916,53.8C130.916,52.76 131.109,51.833 131.496,51.02C131.896,50.193 132.449,49.547 133.156,49.08C133.862,48.6 134.682,48.36 135.616,48.36C136.616,48.36 137.442,48.58 138.096,49.02C138.762,49.447 139.262,50.027 139.596,50.76C139.929,51.493 140.096,52.3 140.096,53.18C140.096,53.647 140.076,54.1 140.036,54.54L132.756,54.54C132.876,55.513 133.216,56.273 133.776,56.82C134.336,57.367 135.076,57.64 135.996,57.64C136.596,57.64 137.136,57.58 137.616,57.46C138.096,57.327 138.556,57.16 138.996,56.96L139.416,58.5C138.936,58.713 138.396,58.887 137.796,59.02C137.196,59.167 136.522,59.24 135.776,59.24ZM132.736,53.08L138.436,53.08C138.436,52.067 138.182,51.287 137.676,50.74C137.169,50.193 136.469,49.92 135.576,49.92C134.802,49.92 134.162,50.193 133.656,50.74C133.149,51.273 132.842,52.053 132.736,53.08ZM146.875,59.24C145.888,59.24 145.001,59.013 144.215,58.56C143.428,58.093 142.808,57.453 142.355,56.64C141.915,55.813 141.695,54.867 141.695,53.8C141.695,52.68 141.921,51.713 142.375,50.9C142.828,50.087 143.448,49.46 144.235,49.02C145.021,48.58 145.901,48.36 146.875,48.36C147.848,48.36 148.721,48.58 149.495,49.02C150.281,49.46 150.901,50.087 151.355,50.9C151.821,51.7 152.055,52.653 152.055,53.76C152.055,54.867 151.828,55.833 151.375,56.66C150.921,57.473 150.301,58.107 149.515,58.56C148.741,59.013 147.861,59.24 146.875,59.24ZM146.875,57.64C147.928,57.64 148.748,57.287 149.335,56.58C149.921,55.86 150.215,54.933 150.215,53.8C150.215,53.107 150.068,52.473 149.775,51.9C149.481,51.313 149.081,50.847 148.575,50.5C148.081,50.14 147.515,49.96 146.875,49.96C145.821,49.96 145.001,50.307 144.415,51C143.828,51.693 143.535,52.613 143.535,53.76C143.535,54.453 143.681,55.1 143.975,55.7C144.268,56.287 144.661,56.76 145.155,57.12C145.661,57.467 146.235,57.64 146.875,57.64Z" style="fill:rgb(228,239,255);fill-rule:nonzero;"/>
        <path d="M260.686,59.24L258.946,55.44C258.506,54.493 257.953,53.82 257.286,53.42C256.619,53.02 255.766,52.82 254.726,52.82L254.426,52.82L254.426,59L252.526,59L252.526,45.04C253.233,44.973 253.906,44.927 254.546,44.9C255.199,44.86 255.893,44.84 256.626,44.84C258.333,44.84 259.613,45.187 260.466,45.88C261.333,46.573 261.766,47.467 261.766,48.56C261.766,49.533 261.473,50.32 260.886,50.92C260.313,51.507 259.479,51.947 258.386,52.24C258.746,52.4 259.066,52.593 259.346,52.82C259.626,53.033 259.893,53.327 260.146,53.7C260.413,54.06 260.679,54.533 260.946,55.12L262.466,58.4L260.686,59.24ZM254.426,51.22L256.626,51.22C257.586,51.22 258.366,51.007 258.966,50.58C259.566,50.153 259.866,49.54 259.866,48.74C259.866,48.073 259.586,47.527 259.026,47.1C258.466,46.66 257.666,46.44 256.626,46.44C256.173,46.44 255.766,46.447 255.406,46.46C255.046,46.473 254.719,46.493 254.426,46.52L254.426,51.22ZM269.05,59.24C268.063,59.24 267.176,59.013 266.39,58.56C265.603,58.093 264.983,57.453 264.53,56.64C264.09,55.813 263.87,54.867 263.87,53.8C263.87,52.68 264.096,51.713 264.55,50.9C265.003,50.087 265.623,49.46 266.41,49.02C267.196,48.58 268.076,48.36 269.05,48.36C270.023,48.36 270.896,48.58 271.67,49.02C272.456,49.46 273.076,50.087 273.53,50.9C273.996,51.7 274.23,52.653 274.23,53.76C274.23,54.867 274.003,55.833 273.55,56.66C273.096,57.473 272.476,58.107 271.69,58.56C270.916,59.013 270.036,59.24 269.05,59.24ZM269.05,57.64C270.103,57.64 270.923,57.287 271.51,56.58C272.096,55.86 272.39,54.933 272.39,53.8C272.39,53.107 272.243,52.473 271.95,51.9C271.656,51.313 271.256,50.847 270.75,50.5C270.256,50.14 269.69,49.96 269.05,49.96C267.996,49.96 267.176,50.307 266.59,51C266.003,51.693 265.71,52.613 265.71,53.76C265.71,54.453 265.856,55.1 266.15,55.7C266.443,56.287 266.836,56.76 267.33,57.12C267.836,57.467 268.41,57.64 269.05,57.64ZM280.023,59.24C279.423,59.24 278.856,59.113 278.323,58.86C277.79,58.607 277.356,58.2 277.023,57.64C276.69,57.067 276.523,56.307 276.523,55.36L276.523,48.6L278.323,48.6L278.323,55.12C278.323,55.933 278.496,56.56 278.843,57C279.19,57.427 279.696,57.64 280.363,57.64C280.91,57.64 281.436,57.533 281.943,57.32C282.463,57.093 282.923,56.793 283.323,56.42L283.323,48.6L285.123,48.6L285.123,56.3C285.123,56.873 285.243,57.253 285.483,57.44C285.736,57.613 286.01,57.7 286.303,57.7L285.923,59.1C284.683,59.1 283.916,58.607 283.623,57.62C283.156,58.1 282.616,58.493 282.003,58.8C281.39,59.093 280.73,59.24 280.023,59.24ZM292.333,59.24C291.333,59.24 290.54,58.913 289.953,58.26C289.38,57.593 289.093,56.647 289.093,55.42L289.093,50.54L287.293,50.54L287.293,48.98L289.133,48.98L289.513,45.7L290.893,45.7L290.893,48.98L293.773,48.98L293.773,50.54L290.893,50.54L290.893,55.56C290.893,56.333 291.053,56.873 291.373,57.18C291.707,57.487 292.1,57.64 292.553,57.64C292.887,57.64 293.2,57.587 293.493,57.48C293.8,57.373 294.08,57.247 294.333,57.1L294.833,58.54C294.567,58.7 294.207,58.853 293.753,59C293.3,59.16 292.827,59.24 292.333,59.24ZM300.412,59.24C298.919,59.24 297.732,58.767 296.852,57.82C295.985,56.86 295.552,55.52 295.552,53.8C295.552,52.76 295.745,51.833 296.132,51.02C296.532,50.193 297.085,49.547 297.792,49.08C298.499,48.6 299.319,48.36 300.252,48.36C301.252,48.36 302.079,48.58 302.732,49.02C303.399,49.447 303.899,50.027 304.232,50.76C304.565,51.493 304.732,52.3 304.732,53.18C304.732,53.647 304.712,54.1 304.672,54.54L297.392,54.54C297.512,55.513 297.852,56.273 298.412,56.82C298.972,57.367 299.712,57.64 300.632,57.64C301.232,57.64 301.772,57.58 302.252,57.46C302.732,57.327 303.192,57.16 303.632,56.96L304.052,58.5C303.572,58.713 303.032,58.887 302.432,59.02C301.832,59.167 301.159,59.24 300.412,59.24ZM297.372,53.08L303.072,53.08C303.072,52.067 302.819,51.287 302.312,50.74C301.805,50.193 301.105,49.92 300.212,49.92C299.439,49.92 298.799,50.193 298.292,50.74C297.785,51.273 297.479,52.053 297.372,53.08Z" style="fill:rgb(228,239,255);fill-rule:nonzero;"/>
        <ellipse cx="229" cy="61.429" rx="12" ry="5.571" style="fill:rgb(196,196,196);"/>
        <path d="M228.573,37C223.6,37 219.572,41.029 219.572,46.001C219.572,49.761 227.075,61.008 228.573,61C230.046,61.008 237.574,49.712 237.574,46.001C237.574,41.037 233.545,37 228.573,37Z" style="fill:rgb(228,239,255);fill-rule:nonzero;"/>
    </g>
</svg>
